<svg width="38" height="38" viewBox="0 0 38 38" fill="none" xmlns="http://www.w3.org/2000/svg">
<path d="M4.75 28.5V20.5834C4.75 20.1147 4.88511 19.6154 5.15533 19.0855C5.42556 18.5557 5.81822 18.1577 6.33333 17.8917V14.25C6.33333 13.357 6.63786 12.606 7.24692 11.997C7.85597 11.3879 8.607 11.0834 9.5 11.0834H16.625C17.1707 11.0834 17.6368 11.1958 18.0231 11.4206C18.4084 11.6444 18.734 11.9542 19 12.35C19.266 11.9542 19.5916 11.6444 19.9769 11.4206C20.3632 11.1958 20.8293 11.0834 21.375 11.0834H28.5C29.393 11.0834 30.144 11.3879 30.7531 11.997C31.3621 12.606 31.6667 13.357 31.6667 14.25V17.8917C32.1828 18.1577 32.5755 18.5557 32.8447 19.0855C33.1149 19.6154 33.25 20.1147 33.25 20.5834V28.5H31.6667V25.3334H6.33333V28.5H4.75ZM19.7917 17.4167H30.0833V14.25C30.0833 13.8014 29.9313 13.4257 29.6273 13.1227C29.3233 12.8198 28.9476 12.6678 28.5 12.6667H21.375C20.9264 12.6667 20.5506 12.8187 20.2477 13.1227C19.9447 13.4267 19.7927 13.8025 19.7917 14.25V17.4167ZM7.91667 17.4167H18.2083V14.25C18.2083 13.8014 18.0563 13.4257 17.7523 13.1227C17.4483 12.8198 17.0726 12.6678 16.625 12.6667H9.5C9.05139 12.6667 8.67561 12.8187 8.37267 13.1227C8.06972 13.4267 7.91772 13.8025 7.91667 14.25V17.4167ZM6.33333 23.75H31.6667V20.5834C31.6667 20.1348 31.5147 19.759 31.2107 19.456C30.9067 19.1531 30.5309 19.0011 30.0833 19H7.91667C7.46806 19 7.09228 19.152 6.78933 19.456C6.48639 19.76 6.33439 20.1358 6.33333 20.5834V23.75Z" fill="#717171"/>
</svg>
