<svg width="38" height="38" viewBox="0 0 38 38" fill="none" xmlns="http://www.w3.org/2000/svg">
<path d="M11.0873 30.5482C10.4923 30.5482 9.99587 30.3493 9.59804 29.9514C9.20021 29.5536 9.00086 29.0572 9 28.4622V11.9677C9 11.3736 9.19935 10.8776 9.59804 10.4797C9.99673 10.0819 10.4932 9.88256 11.0873 9.88169H13.3723V7.69621C13.3723 7.49557 13.4381 7.32938 13.5699 7.19763C13.7016 7.06588 13.8674 7.00001 14.0672 7.00001C14.2669 7.00001 14.4331 7.06588 14.5657 7.19763C14.6984 7.32938 14.7642 7.49557 14.7634 7.69621V9.88169H24.0039V7.64713C24.0039 7.46285 24.0654 7.30871 24.1886 7.18472C24.3117 7.06072 24.4654 6.99915 24.6497 7.00001C24.834 7.00087 24.9873 7.06244 25.1095 7.18472C25.2318 7.30699 25.2938 7.4607 25.2955 7.64584V9.88169H27.5805C28.1746 9.88169 28.6711 10.081 29.0698 10.4797C29.4684 10.8784 29.6674 11.3748 29.6665 11.969V28.4622C29.6665 29.0563 29.4676 29.5528 29.0698 29.9514C28.6719 30.3501 28.1751 30.5491 27.5792 30.5482H11.0873ZM11.0873 29.2565H27.5805C27.7785 29.2565 27.9607 29.1739 28.1268 29.0085C28.293 28.8432 28.3757 28.6607 28.3748 28.4609V17.1356H10.2917V28.4622C10.2917 28.6602 10.3743 28.8423 10.5397 29.0085C10.705 29.1747 10.8871 29.2574 11.086 29.2565M10.2917 15.8427H28.3748V11.9677C28.3748 11.7697 28.2922 11.5875 28.1268 11.4213C27.9615 11.2552 27.779 11.1725 27.5792 11.1734H11.0873C10.8884 11.1734 10.7058 11.256 10.5397 11.4213C10.3735 11.5867 10.2908 11.7692 10.2917 11.969V15.8427ZM19.3333 21.7055C19.0663 21.7055 18.8338 21.6065 18.6358 21.4084C18.4377 21.2104 18.3387 20.9779 18.3387 20.7109C18.3387 20.444 18.4377 20.2119 18.6358 20.0147C18.8338 19.8175 19.0663 19.7185 19.3333 19.7177C19.6002 19.7168 19.8327 19.8158 20.0307 20.0147C20.2288 20.2137 20.3278 20.4462 20.3278 20.7122C20.3278 20.9783 20.2288 21.2104 20.0307 21.4084C19.8327 21.6065 19.6002 21.7055 19.3333 21.7055ZM14.1666 21.7055C13.8997 21.7055 13.6672 21.6065 13.4691 21.4084C13.2711 21.2104 13.172 20.9779 13.172 20.7109C13.172 20.444 13.2711 20.2119 13.4691 20.0147C13.6672 19.8175 13.8997 19.7185 14.1666 19.7177C14.4336 19.7168 14.6661 19.8158 14.8641 20.0147C15.0622 20.2137 15.1612 20.4462 15.1612 20.7122C15.1612 20.9783 15.0622 21.2104 14.8641 21.4084C14.6661 21.6065 14.4336 21.7055 14.1666 21.7055ZM24.4999 21.7055C24.2329 21.7055 24.0004 21.6065 23.8024 21.4084C23.6043 21.2104 23.5053 20.9779 23.5053 20.7109C23.5053 20.444 23.6043 20.2119 23.8024 20.0147C24.0004 19.8175 24.2329 19.7185 24.4999 19.7177C24.7668 19.7168 24.9993 19.8158 25.1974 20.0147C25.3954 20.2137 25.4945 20.4462 25.4945 20.7122C25.4945 20.9783 25.3954 21.2104 25.1974 21.4084C24.9993 21.6065 24.7668 21.7055 24.4999 21.7055ZM19.3333 26.6732C19.0663 26.6732 18.8338 26.5742 18.6358 26.3761C18.4377 26.1781 18.3387 25.9456 18.3387 25.6786C18.3387 25.4117 18.4377 25.1796 18.6358 24.9824C18.8338 24.7853 19.0663 24.6862 19.3333 24.6854C19.6002 24.6845 19.8327 24.7835 20.0307 24.9824C20.2288 25.1814 20.3278 25.4139 20.3278 25.6799C20.3278 25.946 20.2288 26.1785 20.0307 26.3774C19.8327 26.5764 19.6002 26.6749 19.3333 26.6732ZM14.1666 26.6732C13.8997 26.6732 13.6672 26.5742 13.4691 26.3761C13.2711 26.1781 13.172 25.9456 13.172 25.6786C13.172 25.4117 13.2711 25.1796 13.4691 24.9824C13.6672 24.7853 13.8997 24.6862 14.1666 24.6854C14.4336 24.6845 14.6661 24.7835 14.8641 24.9824C15.0622 25.1814 15.1612 25.4139 15.1612 25.6799C15.1612 25.946 15.0622 26.1785 14.8641 26.3774C14.6661 26.5764 14.4336 26.6749 14.1666 26.6732ZM24.4999 26.6732C24.2329 26.6732 24.0004 26.5742 23.8024 26.3761C23.6043 26.1781 23.5053 25.9456 23.5053 25.6786C23.5053 25.4117 23.6043 25.1796 23.8024 24.9824C24.0004 24.7853 24.2329 24.6862 24.4999 24.6854C24.7668 24.6845 24.9993 24.7835 25.1974 24.9824C25.3954 25.1814 25.4945 25.4139 25.4945 25.6799C25.4945 25.946 25.3954 26.1785 25.1974 26.3774C24.9993 26.5764 24.7668 26.6749 24.4999 26.6732Z" fill="#717171"/>
</svg>
