<svg width="20" height="20" viewBox="0 0 20 20" fill="none" xmlns="http://www.w3.org/2000/svg">
<g clip-path="url(#clip0_23_15)">
<path d="M6.96721 0.657901C4.9689 1.35113 3.24556 2.66691 2.05032 4.41197C0.855082 6.15702 0.250946 8.23938 0.326651 10.3532C0.402355 12.4669 1.15391 14.5007 2.47092 16.1558C3.78794 17.8109 5.60099 19 7.64377 19.5485C9.2999 19.9759 11.035 19.9946 12.7 19.6032C14.2083 19.2644 15.6028 18.5397 16.7469 17.5001C17.9376 16.385 18.802 14.9665 19.2469 13.397C19.7305 11.6902 19.8166 9.8953 19.4985 8.15009H10.1985V12.0079H15.5844C15.4768 12.6232 15.2461 13.2104 14.9062 13.7345C14.5663 14.2586 14.1242 14.7087 13.6063 15.0579C12.9486 15.4929 12.2072 15.7857 11.4297 15.9173C10.6499 16.0623 9.85011 16.0623 9.07033 15.9173C8.28 15.7539 7.53236 15.4277 6.87502 14.9595C5.819 14.2119 5.02608 13.15 4.6094 11.9251C4.18567 10.6773 4.18567 9.32447 4.6094 8.07665C4.906 7.20199 5.39632 6.40561 6.04377 5.74696C6.7847 4.97938 7.72273 4.43071 8.75495 4.16115C9.78718 3.89158 10.8737 3.91154 11.8953 4.21884C12.6934 4.46383 13.4232 4.89187 14.0266 5.46884C14.6339 4.86467 15.2401 4.25894 15.8453 3.65165C16.1578 3.32509 16.4985 3.01415 16.8063 2.67978C15.8853 1.82271 14.8042 1.1558 13.625 0.717276C11.4777 -0.0624273 9.12811 -0.0833811 6.96721 0.657901Z" fill="white"/>
<path d="M6.96758 0.657806C9.1283 -0.08398 11.4779 -0.0635778 13.6254 0.715618C14.8048 1.15712 15.8854 1.82724 16.8051 2.68749C16.4926 3.02187 16.1629 3.33437 15.8441 3.65937C15.2379 4.26458 14.6322 4.8677 14.027 5.46874C13.4236 4.89177 12.6938 4.46373 11.8957 4.21874C10.8744 3.91037 9.78792 3.88926 8.75542 4.15772C7.72292 4.42618 6.78432 4.97384 6.04258 5.74062C5.39513 6.39927 4.90481 7.19564 4.6082 8.07031L1.36914 5.56249C2.52853 3.26337 4.53594 1.50472 6.96758 0.657806Z" fill="#E33629"/>
<path d="M0.509175 8.04681C0.683271 7.18399 0.972306 6.34842 1.36855 5.56244L4.60761 8.0765C4.18389 9.32432 4.18389 10.6771 4.60761 11.9249C3.52845 12.7583 2.44876 13.5958 1.36855 14.4374C0.376598 12.4629 0.07407 10.2132 0.509175 8.04681Z" fill="#F8BD00"/>
<path d="M10.198 8.1485H19.498C19.8161 9.89371 19.73 11.6886 19.2464 13.3954C18.8015 14.9649 17.9371 16.3834 16.7464 17.4985C15.7011 16.6829 14.6511 15.8735 13.6058 15.0579C14.124 14.7083 14.5663 14.2577 14.9063 13.7331C15.2462 13.2085 15.4766 12.6206 15.5839 12.0047H10.198C10.1964 10.7204 10.198 9.43444 10.198 8.1485Z" fill="#587DBD"/>
<path d="M1.36719 14.4375C2.4474 13.6042 3.52708 12.7667 4.60625 11.925C5.02376 13.1504 5.81782 14.2124 6.875 14.9594C7.53439 15.4255 8.28364 15.749 9.075 15.9094C9.85478 16.0544 10.6546 16.0544 11.4344 15.9094C12.2119 15.7778 12.9533 15.4851 13.6109 15.05C14.6562 15.8657 15.7063 16.675 16.7516 17.4907C15.6076 18.5309 14.2132 19.2561 12.7047 19.5954C11.0397 19.9868 9.30457 19.968 7.64844 19.5407C6.3386 19.1909 5.11512 18.5744 4.05469 17.7297C2.93228 16.8386 2.01556 15.7156 1.36719 14.4375Z" fill="#319F43"/>
</g>
<defs>
<clipPath id="clip0_23_15">
<rect width="20" height="20" fill="white"/>
</clipPath>
</defs>
</svg>
