<svg width="38" height="38" viewBox="0 0 38 38" fill="none" xmlns="http://www.w3.org/2000/svg">
<path d="M10 29.6667V28.375C10 25.977 10.9526 23.6772 12.6482 21.9816C14.3439 20.2859 16.6437 19.3333 19.0417 19.3333M19.0417 19.3333C21.4397 19.3333 23.7394 20.2859 25.4351 21.9816C27.1307 23.6772 28.0833 25.977 28.0833 28.375V29.6667M19.0417 19.3333C20.412 19.3333 21.7261 18.789 22.6951 17.8201C23.664 16.8511 24.2083 15.537 24.2083 14.1667C24.2083 12.7964 23.664 11.4822 22.6951 10.5133C21.7261 9.54434 20.412 9 19.0417 9C17.6714 9 16.3572 9.54434 15.3883 10.5133C14.4193 11.4822 13.875 12.7964 13.875 14.1667C13.875 15.537 14.4193 16.8511 15.3883 17.8201C16.3572 18.789 17.6714 19.3333 19.0417 19.3333Z" stroke="#717171" stroke-width="1.22368" stroke-linecap="round" stroke-linejoin="round"/>
</svg>
