<svg width="26" height="26" viewBox="0 0 26 26" fill="none" xmlns="http://www.w3.org/2000/svg">
<g clip-path="url(#clip0_23_209)">
<path d="M13.3182 9.22705C12.2209 9.22705 11.1685 9.66297 10.3925 10.4389C9.61658 11.2149 9.18066 12.2673 9.18066 13.3646C9.18066 14.462 9.61658 15.5144 10.3925 16.2903C11.1685 17.0663 12.2209 17.5022 13.3182 17.5022C14.4156 17.5022 15.468 17.0663 16.2439 16.2903C17.0199 15.5144 17.4558 14.462 17.4558 13.3646C17.4558 12.2673 17.0199 11.2149 16.2439 10.4389C15.468 9.66297 14.4156 9.22705 13.3182 9.22705Z" fill="#003B95"/>
<path fill-rule="evenodd" clip-rule="evenodd" d="M8.35192 0.952148C6.37669 0.952148 4.48235 1.73681 3.08565 3.13351C1.68895 4.53021 0.904297 6.42454 0.904297 8.39977L0.904297 18.3299C0.904297 20.3052 1.68895 22.1995 3.08565 23.5962C4.48235 24.9929 6.37669 25.7775 8.35192 25.7775H18.2821C20.2573 25.7775 22.1516 24.9929 23.5483 23.5962C24.945 22.1995 25.7297 20.3052 25.7297 18.3299V8.39977C25.7297 6.42454 24.945 4.53021 23.5483 3.13351C22.1516 1.73681 20.2573 0.952148 18.2821 0.952148L8.35192 0.952148ZM7.5244 13.3648C7.5244 11.8286 8.13469 10.3552 9.22101 9.26887C10.3073 8.18254 11.7807 7.57225 13.317 7.57225C14.8533 7.57225 16.3267 8.18254 17.413 9.26887C18.4993 10.3552 19.1096 11.8286 19.1096 13.3648C19.1096 14.9011 18.4993 16.3745 17.413 17.4608C16.3267 18.5472 14.8533 19.1574 13.317 19.1574C11.7807 19.1574 10.3073 18.5472 9.22101 17.4608C8.13469 16.3745 7.5244 14.9011 7.5244 13.3648ZM19.1096 7.57225H20.7646V5.91723H19.1096V7.57225Z" fill="#003B95"/>
</g>
<defs>
<clipPath id="clip0_23_209">
<rect width="24.8254" height="24.8254" fill="white" transform="translate(0.904297 0.952148)"/>
</clipPath>
</defs>
</svg>
