<svg width="26" height="26" viewBox="0 0 26 26" fill="none" xmlns="http://www.w3.org/2000/svg">
<g clip-path="url(#clip0_23_218)">
<path d="M22.5318 1.39575C23.2373 1.39575 23.9138 1.67599 24.4126 2.17481C24.9115 2.67363 25.1917 3.35018 25.1917 4.05562V22.6747C25.1917 23.3801 24.9115 24.0566 24.4126 24.5555C23.9138 25.0543 23.2373 25.3345 22.5318 25.3345H3.91279C3.20735 25.3345 2.53081 25.0543 2.03199 24.5555C1.53316 24.0566 1.25293 23.3801 1.25293 22.6747V4.05562C1.25293 3.35018 1.53316 2.67363 2.03199 2.17481C2.53081 1.67599 3.20735 1.39575 3.91279 1.39575H22.5318ZM21.8669 22.0097V14.9611C21.8669 13.8112 21.4101 12.7084 20.597 11.8953C19.7839 11.0823 18.6812 10.6255 17.5313 10.6255C16.4009 10.6255 15.0842 11.317 14.4459 12.3544V10.8782H10.7353V22.0097H14.4459V15.4531C14.4459 14.4291 15.2704 13.5912 16.2945 13.5912C16.7883 13.5912 17.2619 13.7874 17.611 14.1366C17.9602 14.4857 18.1564 14.9593 18.1564 15.4531V22.0097H21.8669ZM6.41307 8.79017C7.00563 8.79017 7.57393 8.55478 7.99294 8.13577C8.41195 7.71676 8.64735 7.14846 8.64735 6.55589C8.64735 5.31905 7.6499 4.3083 6.41307 4.3083C5.81697 4.3083 5.24529 4.5451 4.82378 4.9666C4.40228 5.38811 4.16548 5.95979 4.16548 6.55589C4.16548 7.79272 5.17623 8.79017 6.41307 8.79017ZM8.26167 22.0097V10.8782H4.57776V22.0097H8.26167Z" fill="#003B95"/>
</g>
<defs>
<clipPath id="clip0_23_218">
<rect width="24.8254" height="24.8254" fill="white" transform="translate(0.80957 0.952393)"/>
</clipPath>
</defs>
</svg>
