<svg width="32" height="26" viewBox="0 0 32 26" fill="none" xmlns="http://www.w3.org/2000/svg">
<g clip-path="url(#clip0_23_214)">
<path d="M10.4059 25.6676C21.7819 25.6676 28.005 16.2416 28.005 8.08165C28.005 7.81788 28.005 7.55034 27.9937 7.28657C29.2052 6.40951 30.2509 5.32365 31.0816 4.07988C29.9499 4.57888 28.7506 4.90775 27.5226 5.05583C28.8161 4.28268 29.7849 3.06619 30.2489 1.63247C29.0336 2.35242 27.7035 2.85782 26.3168 3.12654C25.3846 2.13368 24.1509 1.47594 22.807 1.2552C21.463 1.03447 20.0838 1.26305 18.8829 1.90555C17.6821 2.54804 16.7266 3.5686 16.1644 4.80913C15.6023 6.04966 15.4649 7.44094 15.7736 8.76745C13.3144 8.64414 10.9086 8.00528 8.71216 6.89231C6.51576 5.77935 4.57784 4.21713 3.02407 2.30697C2.23529 3.66931 1.99457 5.28079 2.35079 6.81417C2.70702 8.34755 3.63348 9.68787 4.94206 10.563C3.96147 10.5297 3.00245 10.2663 2.14233 9.79427V9.87905C2.14402 11.3062 2.63842 12.689 3.54195 13.7937C4.44549 14.8984 5.70275 15.6573 7.1012 15.942C6.57039 16.0882 6.02206 16.1611 5.47148 16.1587C5.08333 16.1598 4.69596 16.1239 4.31466 16.0513C4.70991 17.2798 5.47953 18.3539 6.51572 19.1232C7.55191 19.8925 8.80277 20.3184 10.0931 20.3413C7.90109 22.063 5.19339 22.9967 2.4061 22.9922C1.91496 22.9943 1.42416 22.9659 0.936523 22.9074C3.76548 24.711 7.05089 25.6686 10.4059 25.6676Z" fill="#003B95"/>
</g>
<defs>
<clipPath id="clip0_23_214">
<rect width="30.1451" height="24.8254" fill="white" transform="translate(0.936523 0.952393)"/>
</clipPath>
</defs>
</svg>
