<svg width="66" height="57" viewBox="0 0 66 57" fill="none" xmlns="http://www.w3.org/2000/svg">
<path d="M0 0C6.84412 0 13.6882 0 20.7398 0C21.329 1.04248 21.9182 2.08496 22.5253 3.15904C23.4675 4.81547 24.418 6.46641 25.3808 8.11186C25.8986 8.99913 26.4123 9.88916 26.9205 10.7819C27.5125 11.8217 28.1113 12.8559 28.7143 13.8888C28.7939 14.0275 28.875 14.1648 28.9574 14.3063C29.3433 14.9683 29.732 15.629 30.1303 16.2855C30.2018 16.4036 30.2732 16.5231 30.346 16.6454C30.4792 16.8679 30.6138 17.089 30.7512 17.3101C31.1769 18.0257 31.1769 18.0257 31.1811 18.4845C30.9901 18.9377 30.7635 19.3621 30.5177 19.7866C30.4641 19.88 30.4105 19.9733 30.3556 20.0695C29.6414 21.3111 28.8997 22.5363 28.1566 23.7614C27.7844 23.4263 27.5592 23.0637 27.3119 22.6297C27.2281 22.4841 27.1457 22.3399 27.0592 22.1902C26.9713 22.035 26.8834 21.8784 26.7914 21.7177C26.6993 21.5556 26.606 21.3935 26.5126 21.2315C26.2365 20.7466 25.9604 20.2632 25.6843 19.7783C25.4069 19.2921 25.1294 18.8059 24.852 18.3197C24.7861 18.2043 24.7201 18.0889 24.6528 17.9708C23.9688 16.7717 23.2725 15.5809 22.5761 14.3901C21.7397 12.9589 20.9114 11.525 20.0846 10.0897C19.994 9.93311 19.9033 9.77653 19.8099 9.61446C19.6341 9.30954 19.4583 9.00463 19.2825 8.69834C19.1589 8.48545 19.1589 8.48545 19.0339 8.26706C18.9625 8.14345 18.8897 8.01846 18.8169 7.89072C18.7262 7.73414 18.6356 7.57757 18.5422 7.41687C18.4529 7.21222 18.4529 7.21222 18.3622 7.00207C17.9612 6.12716 17.9612 6.12716 17.1879 5.62446C16.6989 5.57776 16.2347 5.58325 15.7444 5.60798C15.5686 5.61072 15.3927 5.6121 15.2128 5.61484C14.7486 5.62308 14.2857 5.63682 13.8215 5.65605C13.3476 5.67253 12.8738 5.6794 12.3999 5.68764C11.47 5.70687 10.5429 5.73434 9.61446 5.76867C9.67352 5.87169 9.73395 5.9747 9.79576 6.08183C10.7325 7.70118 11.6678 9.3219 12.584 10.9536C13.246 12.1293 13.9259 13.2927 14.6153 14.4533C15.0878 15.2499 15.548 16.0506 15.9985 16.8596C16.4613 17.6879 16.9393 18.5051 17.4173 19.3237C18.0271 20.3648 18.6328 21.4087 19.2289 22.4566C19.8181 23.4909 20.4142 24.5196 21.0145 25.547C21.682 26.6884 22.3426 27.8339 22.9964 28.9835C23.8356 30.4545 24.6913 31.9145 25.547 33.3759C26.1403 32.7111 26.5304 31.9379 26.9548 31.1618C27.6786 29.8529 28.4217 28.5577 29.1867 27.2721C29.2774 27.121 29.368 26.9686 29.4601 26.812C30.1125 25.7187 30.1125 25.7187 30.4353 25.1871C30.8583 24.4894 31.258 23.782 31.6467 23.0637C32.0519 22.3193 32.4749 21.5858 32.8952 20.851C32.9433 20.7686 32.99 20.6848 33.0394 20.5997C33.7756 19.3113 34.52 18.0285 35.2686 16.747C35.8482 15.7567 36.4251 14.7637 36.9992 13.7693C37.0843 13.6223 37.1695 13.474 37.256 13.3215C37.7038 12.5455 38.1488 11.7681 38.5924 10.9893C38.7765 10.6652 38.9605 10.3424 39.1446 10.0183C39.1899 9.9386 39.2352 9.85894 39.2819 9.77653C40.0387 8.44836 40.8161 7.13393 41.61 5.82773C42.066 5.07643 42.5014 4.31826 42.9176 3.54499C43.2939 2.85412 43.684 2.17012 44.0727 1.48475C44.4888 0.749928 44.4888 0.749928 44.9133 0C46.9982 0 49.0832 0 51.2313 0C50.9223 0.925735 50.9223 0.925735 50.6874 1.31443C50.6352 1.40234 50.5817 1.48887 50.5281 1.57952C50.4718 1.67292 50.4141 1.76631 50.355 1.86246C50.23 2.07123 50.1064 2.28 49.9814 2.48877C49.9155 2.59865 49.851 2.70853 49.7837 2.82116C49.4458 3.38978 49.1203 3.96528 48.7934 4.54077C48.1849 5.60935 47.5682 6.67381 46.9474 7.73414C46.431 8.6173 45.9173 9.50183 45.4201 10.396C44.8405 11.4357 44.2375 12.4603 43.6345 13.4863C42.7431 15.0013 41.8627 16.5218 40.9947 18.0505C40.7735 18.4392 40.5524 18.8265 40.3299 19.2138C40.2544 19.347 40.1774 19.4803 40.0992 19.6176C39.9522 19.8731 39.8052 20.1299 39.6583 20.3868C39.5607 20.5585 39.5607 20.5585 39.4605 20.7329C39.4028 20.8332 39.3451 20.9348 39.2847 21.0392C39.1885 21.2109 39.0951 21.3867 39.0072 21.5639C41.6814 21.5639 44.3556 21.5639 47.1108 21.5639C47.2015 21.2919 47.2921 21.02 47.3855 20.7398C47.5064 20.5063 47.6355 20.2755 47.7701 20.0489C47.847 19.9198 47.924 19.7893 48.0022 19.6561C48.0846 19.5173 48.1671 19.38 48.2522 19.2372C48.428 18.9405 48.6038 18.6438 48.7783 18.3458C48.8675 18.196 48.9554 18.045 49.0475 17.8898C49.443 17.214 49.8262 16.53 50.2094 15.8474C50.8619 14.6868 51.5308 13.5399 52.2106 12.3972C52.7353 11.514 53.2435 10.6226 53.7462 9.72571C54.3986 8.56236 55.0716 7.41275 55.7556 6.26588C56.7281 4.63554 57.6634 2.98872 58.5809 1.3268C58.8295 0.883157 59.0822 0.442265 59.3349 0C61.4199 0 63.5049 0 65.653 0C65.344 0.927108 65.344 0.927108 65.094 1.35014C65.0363 1.44629 64.98 1.54381 64.9223 1.6427C64.8605 1.74708 64.7987 1.8501 64.7341 1.95723C64.5982 2.18935 64.4622 2.42284 64.3248 2.65496C64.2521 2.77995 64.1779 2.90494 64.1023 3.03267C63.6766 3.75925 63.2576 4.48995 62.8373 5.21928C62.6615 5.52557 62.4844 5.83186 62.3072 6.13677C62.2234 6.28374 62.1382 6.43207 62.0503 6.58316C60.4667 9.32877 60.4667 9.32877 59.8157 10.4303C59.1523 11.5511 58.504 12.6801 57.8584 13.8119C57.1634 15.0315 56.4643 16.2484 55.7556 17.4599C54.3107 19.9294 52.885 22.4086 51.4676 24.8932C50.7904 26.0799 50.1078 27.2652 49.4224 28.4478C49.0447 29.0988 48.6684 29.7513 48.2934 30.4023C47.5394 31.7112 46.7826 33.0174 46.0203 34.3209C45.2759 35.5927 44.5424 36.8714 43.8117 38.1529C43.0893 39.4234 42.3558 40.687 41.6182 41.9479C41.1087 42.8187 40.6046 43.6936 40.106 44.5699C39.4509 45.7209 38.7847 46.8664 38.1158 48.0091C37.6681 48.7741 37.2258 49.5406 36.7877 50.3097C36.7382 50.3949 36.6901 50.4787 36.6407 50.5666C36.4072 50.9759 36.1737 51.3865 35.9416 51.7972C35.4169 52.7216 34.8744 53.6308 34.3113 54.5318C33.8223 55.3326 33.38 56.1594 32.9639 57C32.8732 57 32.7826 57 32.6892 57C32.4804 56.6923 32.4804 56.6923 32.2428 56.2707C32.1562 56.1182 32.0711 55.9671 31.9818 55.8106C31.4049 54.7708 31.4049 54.7708 31.1385 54.2585C30.9531 53.9289 30.7608 53.6322 30.5438 53.3259C29.6098 51.9538 29.6098 51.9538 29.7595 51.1475C29.9696 50.7218 30.1935 50.3427 30.4655 49.954C30.7223 49.5859 30.9421 49.1972 31.1701 48.8112C31.2745 48.6382 31.3802 48.4665 31.4846 48.2934C31.9804 47.4762 32.4488 46.6452 32.9213 45.8143C33.619 44.5891 34.3209 43.3667 35.0323 42.1498C36.4676 39.6954 37.8837 37.2327 39.2915 34.7631C40.0772 33.3855 40.8738 32.0148 41.6759 30.6454C42.3476 29.4985 43.011 28.3462 43.6771 27.1952C42.6676 27.1306 41.6581 27.0826 40.6458 27.0523C40.1761 27.0386 39.7077 27.0194 39.2393 26.9878C37.2134 26.7804 37.2134 26.7804 35.3853 27.4493C34.8359 28.0962 34.4994 28.8255 34.1931 29.6112C34.0338 30.015 33.8305 30.3817 33.6121 30.7566C33.5517 30.8693 33.4899 30.9833 33.4281 31.1014C33.0353 31.8293 32.6205 32.5463 32.2084 33.2647C32.1604 33.3471 32.1137 33.4308 32.0642 33.516C31.328 34.803 30.585 36.0858 29.8364 37.3645C29.2376 38.3878 28.6456 39.4138 28.0536 40.4412C27.2721 41.7982 26.4823 43.1524 25.6843 44.5012C25.3492 44.1935 25.1377 43.8859 24.9193 43.4876C24.8506 43.3667 24.7833 43.2445 24.7133 43.1181C24.6391 42.9849 24.5663 42.853 24.4908 42.7157C23.7999 41.4768 23.0898 40.2516 22.3619 39.0333C21.7053 37.9304 21.0612 36.8247 20.4458 35.6985C19.9349 34.7714 19.3937 33.8635 18.8512 32.9556C18.0518 31.6165 17.2786 30.2663 16.5231 28.9024C15.8762 27.7405 15.2005 26.5963 14.5192 25.4536C13.9121 24.4372 13.3215 23.414 12.7543 22.3756C12.2433 21.4485 11.7022 20.5406 11.1596 19.6327C10.3507 18.2771 9.56776 16.9105 8.80135 15.5301C8.21212 14.4698 7.60092 13.4245 6.9801 12.3834C6.4568 11.5044 5.95135 10.6171 5.4514 9.72571C4.788 8.54176 4.10263 7.37154 3.40764 6.20682C2.6687 4.96655 1.94761 3.71805 1.254 2.45169C0.905133 1.81713 0.535663 1.19494 0.162072 0.575494C0 0.274699 0 0.274699 0 0Z" fill="#003B95"/>
</svg>
