<svg width="292" height="140" viewBox="0 0 292 140" fill="none" xmlns="http://www.w3.org/2000/svg">
<path d="M68.8321 47.666C72.0541 47.666 74.5857 48.1263 76.4268 49.0469C78.2679 49.9017 79.6488 51.0853 80.5694 52.5977C81.5557 54.11 82.1804 55.8854 82.4434 57.9238C82.7064 59.8965 82.8379 62.0007 82.8379 64.2363V122.627C82.8379 124.928 82.7064 127.065 82.4434 129.038C82.1804 131.011 81.5886 132.753 80.668 134.266C79.7474 135.712 78.3666 136.863 76.5254 137.718C74.6843 138.573 72.1856 139 69.0293 139C65.9388 139 63.473 138.605 61.6319 137.816C59.7907 136.962 58.377 135.844 57.3907 134.463C56.4043 133.082 55.7468 131.438 55.418 129.531C55.155 127.624 55.0235 125.586 55.0235 123.416V105.859H21.2911C17.2142 105.859 13.8607 105.531 11.2305 104.873C8.60031 104.215 6.49614 103.361 4.91801 102.309C3.40564 101.191 2.32068 99.9085 1.66313 98.4619C1.07133 97.0153 0.775436 95.5358 0.775436 94.0234C0.775436 93.2344 0.841192 92.4453 0.972702 91.6562C1.16997 90.8672 1.36723 90.0781 1.5645 89.2891L21.4883 20.0488C22.1459 17.6159 22.7706 15.2487 23.3624 12.9473C24.0199 10.6458 24.8747 8.60742 25.9268 6.83203C27.0446 5.05664 28.557 3.6429 30.4639 2.59082C32.3708 1.47298 34.9681 0.914062 38.2559 0.914062C40.6231 0.914062 42.5629 1.24284 44.0752 1.90039C45.6534 2.55794 46.9027 3.44564 47.8233 4.56348C48.7439 5.61556 49.3685 6.86491 49.6973 8.31152C50.0918 9.69238 50.2891 11.1719 50.2891 12.75C50.2891 14.3281 50.1576 15.9391 49.8946 17.583C49.6316 19.1611 49.3028 20.6406 48.9082 22.0215C48.5795 23.4023 48.2178 24.6517 47.8233 25.7695C47.4945 26.8216 47.2644 27.6107 47.1329 28.1367C47.1329 28.1367 46.9356 28.86 46.5411 30.3066C46.1465 31.6875 45.6205 33.5286 44.9629 35.8301C44.3054 38.0658 43.5821 40.6631 42.793 43.6221C42.004 46.5153 41.182 49.4743 40.3272 52.499C38.2888 59.6006 36.0202 67.6556 33.5215 76.6641L34.3106 77.4531H55.0235V64.0391C55.0235 61.8034 55.155 59.6992 55.418 57.7266C55.681 55.7539 56.2728 54.0443 57.1934 52.5977C58.114 51.0853 59.4948 49.9017 61.336 49.0469C63.1771 48.1263 65.6758 47.666 68.8321 47.666ZM102.367 40.3672C102.367 33.9889 103.255 28.5641 105.03 24.0928C106.871 19.5557 109.206 15.8076 112.033 12.8486C114.861 9.88965 117.984 7.55534 121.403 5.8457C124.823 4.13607 128.143 2.85384 131.365 1.99902C134.653 1.14421 137.579 0.618164 140.144 0.420898C142.774 0.223633 144.714 0.125 145.963 0.125H149.316C150.566 0.125 152.506 0.223633 155.136 0.420898C157.766 0.618164 160.659 1.14421 163.815 1.99902C167.037 2.85384 170.325 4.13607 173.679 5.8457C177.098 7.55534 180.189 9.88965 182.95 12.8486C185.778 15.8076 188.079 19.5557 189.855 24.0928C191.63 28.5641 192.518 33.9889 192.518 40.3672V98.5605C192.518 105.136 191.63 110.725 189.855 115.328C188.079 119.931 185.778 123.778 182.95 126.868C180.189 129.893 177.098 132.26 173.679 133.97C170.325 135.679 167.037 136.994 163.815 137.915C160.659 138.77 157.766 139.296 155.136 139.493C152.506 139.69 150.566 139.789 149.316 139.789H145.963C144.714 139.789 142.774 139.69 140.144 139.493C137.579 139.296 134.653 138.77 131.365 137.915C128.143 136.994 124.823 135.679 121.403 133.97C117.984 132.26 114.861 129.893 112.033 126.868C109.206 123.778 106.871 119.931 105.03 115.328C103.255 110.725 102.367 105.136 102.367 98.5605V40.3672ZM134.719 103.689C134.916 105.991 135.541 108.029 136.593 109.805C137.448 111.317 138.73 112.731 140.439 114.046C142.215 115.295 144.648 115.92 147.738 115.92C150.763 115.92 153.13 115.295 154.84 114.046C156.55 112.731 157.832 111.317 158.687 109.805C159.673 108.029 160.298 105.991 160.561 103.689V37.0137C160.298 34.7122 159.673 32.6738 158.687 30.8984C157.832 29.3861 156.55 28.0052 154.84 26.7559C153.13 25.4408 150.763 24.7832 147.738 24.7832C144.648 24.7832 142.215 25.4408 140.439 26.7559C138.73 28.0052 137.448 29.3861 136.593 30.8984C135.541 32.6738 134.916 34.7122 134.719 37.0137V103.689ZM277.934 47.666C281.156 47.666 283.687 48.1263 285.528 49.0469C287.37 49.9017 288.75 51.0853 289.671 52.5977C290.657 54.11 291.282 55.8854 291.545 57.9238C291.808 59.8965 291.939 62.0007 291.939 64.2363V122.627C291.939 124.928 291.808 127.065 291.545 129.038C291.282 131.011 290.69 132.753 289.77 134.266C288.849 135.712 287.468 136.863 285.627 137.718C283.786 138.573 281.287 139 278.131 139C275.04 139 272.575 138.605 270.733 137.816C268.892 136.962 267.479 135.844 266.492 134.463C265.506 133.082 264.848 131.438 264.52 129.531C264.257 127.624 264.125 125.586 264.125 123.416V105.859H230.393C226.316 105.859 222.962 105.531 220.332 104.873C217.702 104.215 215.598 103.361 214.02 102.309C212.507 101.191 211.422 99.9085 210.765 98.4619C210.173 97.0153 209.877 95.5358 209.877 94.0234C209.877 93.2344 209.943 92.4453 210.074 91.6562C210.272 90.8672 210.469 90.0781 210.666 89.2891L230.59 20.0488C231.247 17.6159 231.872 15.2487 232.464 12.9473C233.121 10.6458 233.976 8.60742 235.028 6.83203C236.146 5.05664 237.659 3.6429 239.565 2.59082C241.472 1.47298 244.07 0.914062 247.357 0.914062C249.725 0.914062 251.664 1.24284 253.177 1.90039C254.755 2.55794 256.004 3.44564 256.925 4.56348C257.845 5.61556 258.47 6.86491 258.799 8.31152C259.193 9.69238 259.391 11.1719 259.391 12.75C259.391 14.3281 259.259 15.9391 258.996 17.583C258.733 19.1611 258.404 20.6406 258.01 22.0215C257.681 23.4023 257.319 24.6517 256.925 25.7695C256.596 26.8216 256.366 27.6107 256.234 28.1367C256.234 28.1367 256.037 28.86 255.643 30.3066C255.248 31.6875 254.722 33.5286 254.064 35.8301C253.407 38.0658 252.684 40.6631 251.895 43.6221C251.106 46.5153 250.284 49.4743 249.429 52.499C247.39 59.6006 245.122 67.6556 242.623 76.6641L243.412 77.4531H264.125V64.0391C264.125 61.8034 264.257 59.6992 264.52 57.7266C264.783 55.7539 265.374 54.0443 266.295 52.5977C267.216 51.0853 268.596 49.9017 270.438 49.0469C272.279 48.1263 274.777 47.666 277.934 47.666Z" fill="#003B95"/>
</svg>
