<svg width="241" height="240" viewBox="0 0 241 240" fill="none" xmlns="http://www.w3.org/2000/svg">
<g clip-path="url(#clip0_263_494)">
<path d="M33.4422 157.276C33.4422 157.276 46.2752 186.61 78.8191 196.188C111.363 205.765 146.052 192.997 174.428 183.394C202.803 173.791 217.722 149.209 211.398 124.056C205.075 98.902 181.172 100.685 158.882 78.3269C136.592 55.9695 134.048 46.6313 103.151 40.0271C72.2534 33.4228 38.4395 59.4257 29.985 96.2637C21.53 133.102 33.4422 157.276 33.4422 157.276Z" fill="#003B95"/>
<path opacity="0.8" d="M33.4422 157.276C33.4422 157.276 46.2752 186.61 78.8191 196.188C111.363 205.765 146.052 192.997 174.428 183.394C202.803 173.791 217.722 149.209 211.398 124.056C205.075 98.902 181.172 100.685 158.882 78.3269C136.592 55.9695 134.048 46.6313 103.151 40.0271C72.2534 33.4228 38.4395 59.4257 29.985 96.2637C21.53 133.102 33.4422 157.276 33.4422 157.276Z" fill="white"/>
<path d="M198.6 117.651C198.6 117.651 210.39 118.818 216.366 126.126C216.366 126.126 222.679 117.66 234.019 117.833C237.309 113.867 239.289 108.774 239.291 103.218C239.295 90.5611 229.038 80.297 216.382 80.2928C203.725 80.2882 193.461 90.5451 193.457 103.202C193.455 108.688 195.382 113.725 198.597 117.671L198.6 117.651Z" fill="#003B95"/>
<path opacity="0.5" d="M198.6 117.651C198.6 117.651 210.39 118.818 216.366 126.126C216.366 126.126 222.679 117.66 234.019 117.833C237.309 113.867 239.289 108.774 239.291 103.218C239.295 90.5611 229.038 80.297 216.382 80.2928C203.725 80.2882 193.461 90.5451 193.457 103.202C193.455 108.688 195.382 113.725 198.597 117.671L198.6 117.651Z" fill="white"/>
<path d="M215.974 81.9091L215.576 158.32H217.566L215.974 81.9091Z" fill="#B8B8B8"/>
<path d="M216.572 123.899C216.572 123.899 220.552 116.735 227.716 114.546C227.716 114.546 220.154 116.337 216.373 122.506L216.572 123.899Z" fill="#B8B8B8"/>
<path d="M216.572 103.6C216.572 103.6 220.552 96.4359 227.716 94.2472C227.716 94.2472 220.154 96.0383 216.373 102.207L216.572 103.6Z" fill="#B8B8B8"/>
<path d="M216.572 113.75C216.572 113.75 220.552 106.585 227.716 104.397C227.716 104.397 220.154 106.188 216.373 112.357L216.572 113.75Z" fill="#B8B8B8"/>
<path d="M215.982 108.775C215.982 108.775 212.141 101.61 205.229 99.4215C205.229 99.4215 212.525 101.213 216.174 107.382L215.982 108.775Z" fill="#B8B8B8"/>
<path d="M215.982 118.725C215.982 118.725 212.141 111.561 205.229 109.372C205.229 109.372 212.525 111.163 216.174 117.332L215.982 118.725Z" fill="#B8B8B8"/>
<path d="M5.64286 117.651C5.64286 117.651 17.4332 118.818 23.4088 126.126C23.4088 126.126 29.7224 117.66 41.0616 117.833C44.3522 113.867 46.3315 108.774 46.3336 103.218C46.3377 90.5611 36.0813 80.297 23.4248 80.2928C10.7682 80.2882 0.504631 90.5451 0.500002 103.202C0.497944 108.688 2.42536 113.725 5.63926 117.671L5.64286 117.651Z" fill="#003B95"/>
<path opacity="0.5" d="M5.64286 117.651C5.64286 117.651 17.4332 118.818 23.4088 126.126C23.4088 126.126 29.7224 117.66 41.0616 117.833C44.3522 113.867 46.3315 108.774 46.3336 103.218C46.3377 90.5611 36.0813 80.297 23.4248 80.2928C10.7682 80.2882 0.504631 90.5451 0.500002 103.202C0.497944 108.688 2.42536 113.725 5.63926 117.671L5.64286 117.651Z" fill="white"/>
<path d="M23.0173 81.9091L22.6191 158.32H24.6093L23.0173 81.9091Z" fill="#B8B8B8"/>
<path d="M23.6151 123.899C23.6151 123.899 27.5949 116.735 34.7593 114.546C34.7593 114.546 27.1973 116.337 23.416 122.506L23.6151 123.899Z" fill="#B8B8B8"/>
<path d="M23.6151 103.6C23.6151 103.6 27.5949 96.4359 34.7593 94.2472C34.7593 94.2472 27.1973 96.0383 23.416 102.207L23.6151 103.6Z" fill="#B8B8B8"/>
<path d="M23.6151 113.75C23.6151 113.75 27.5949 106.585 34.7593 104.397C34.7593 104.397 27.1973 106.188 23.416 112.357L23.6151 113.75Z" fill="#B8B8B8"/>
<path d="M23.0248 108.775C23.0248 108.775 19.1844 101.61 12.2715 99.4215C12.2715 99.4215 19.5686 101.213 23.2167 107.382L23.0248 108.775Z" fill="#B8B8B8"/>
<path d="M23.0248 118.725C23.0248 118.725 19.1844 111.561 12.2715 109.372C12.2715 109.372 19.5686 111.163 23.2167 117.332L23.0248 118.725Z" fill="#B8B8B8"/>
<path d="M150.699 125.034C150.699 125.034 160.349 125.989 165.24 131.971C165.24 131.971 170.407 125.041 179.688 125.183C182.382 121.937 184.002 117.768 184.003 113.221C184.007 102.862 175.612 94.4616 165.253 94.458C154.894 94.4544 146.494 102.849 146.49 113.208C146.489 117.699 148.066 121.82 150.697 125.05L150.699 125.034Z" fill="#003B95"/>
<path opacity="0.5" d="M150.699 125.034C150.699 125.034 160.349 125.989 165.24 131.971C165.24 131.971 170.407 125.041 179.688 125.183C182.382 121.937 184.002 117.768 184.003 113.221C184.007 102.862 175.612 94.4616 165.253 94.458C154.894 94.4544 146.494 102.849 146.49 113.208C146.489 117.699 148.066 121.82 150.697 125.05L150.699 125.034Z" fill="white"/>
<path d="M164.92 95.781L164.594 158.32H166.223L164.92 95.781Z" fill="#B8B8B8"/>
<path d="M165.409 130.148C165.409 130.148 168.666 124.284 174.53 122.493C174.53 122.493 168.341 123.959 165.246 129.008L165.409 130.148Z" fill="#B8B8B8"/>
<path d="M165.409 113.534C165.409 113.534 168.666 107.671 174.53 105.879C174.53 105.879 168.341 107.345 165.246 112.394L165.409 113.534Z" fill="#B8B8B8"/>
<path d="M165.409 121.841C165.409 121.841 168.666 115.977 174.53 114.186C174.53 114.186 168.341 115.652 165.246 120.701L165.409 121.841Z" fill="#B8B8B8"/>
<path d="M164.926 117.769C164.926 117.769 161.783 111.906 156.125 110.114C156.125 110.114 162.097 111.58 165.083 116.629L164.926 117.769Z" fill="#B8B8B8"/>
<path d="M164.926 125.913C164.926 125.913 161.783 120.049 156.125 118.258C156.125 118.258 162.097 119.724 165.083 124.773L164.926 125.913Z" fill="#B8B8B8"/>
<path d="M57.3342 125.034C57.3342 125.034 66.9842 125.989 71.875 131.971C71.875 131.971 77.042 125.041 86.3232 125.183C89.0165 121.937 90.6363 117.768 90.6378 113.221C90.6414 102.862 82.2466 94.4616 71.8879 94.458C61.5291 94.4544 53.1286 102.849 53.125 113.208C53.1235 117.699 54.7011 121.82 57.3317 125.05L57.3342 125.034Z" fill="#003B95"/>
<path opacity="0.5" d="M57.3342 125.034C57.3342 125.034 66.9842 125.989 71.875 131.971C71.875 131.971 77.042 125.041 86.3232 125.183C89.0165 121.937 90.6363 117.768 90.6378 113.221C90.6414 102.862 82.2466 94.4616 71.8879 94.458C61.5291 94.4544 53.1286 102.849 53.125 113.208C53.1235 117.699 54.7011 121.82 57.3317 125.05L57.3342 125.034Z" fill="white"/>
<path d="M71.5561 95.781L71.2305 158.32H72.859L71.5561 95.781Z" fill="#B8B8B8"/>
<path d="M72.0434 130.148C72.0434 130.148 75.301 124.284 81.1646 122.493C81.1646 122.493 74.9749 123.959 71.8809 129.008L72.0434 130.148Z" fill="#B8B8B8"/>
<path d="M72.0434 113.534C72.0434 113.534 75.301 107.671 81.1646 105.879C81.1646 105.879 74.9749 107.345 71.8809 112.394L72.0434 113.534Z" fill="#B8B8B8"/>
<path d="M72.0434 121.841C72.0434 121.841 75.301 115.977 81.1646 114.186C81.1646 114.186 74.9749 115.652 71.8809 120.701L72.0434 121.841Z" fill="#B8B8B8"/>
<path d="M71.561 117.769C71.561 117.769 68.4175 111.906 62.7598 110.114C62.7598 110.114 68.7318 111.58 71.7178 116.629L71.561 117.769Z" fill="#B8B8B8"/>
<path d="M71.561 125.913C71.561 125.913 68.4175 120.049 62.7598 118.258C62.7598 118.258 68.7318 119.724 71.7178 124.773L71.561 125.913Z" fill="#B8B8B8"/>
<path d="M9.19336 158.592H231.172" stroke="#263238" stroke-width="0.5" stroke-miterlimit="10"/>
<path opacity="0.3" d="M69.8015 183.415C69.8015 184.946 60.3178 186.187 48.6195 186.187C36.9208 186.187 27.4375 184.946 27.4375 183.415C27.4375 181.885 36.9213 180.644 48.6195 180.644C60.3178 180.644 69.8015 181.885 69.8015 183.415Z" fill="black"/>
<path opacity="0.3" d="M114.145 183.415C114.145 184.946 104.662 186.187 92.9633 186.187C81.2645 186.187 71.7812 184.946 71.7812 183.415C71.7812 181.885 81.265 180.644 92.9633 180.644C104.662 180.644 114.145 181.885 114.145 183.415Z" fill="black"/>
<path opacity="0.3" d="M172.865 183.415C172.865 184.946 163.381 186.187 151.682 186.187C139.983 186.187 130.5 184.946 130.5 183.415C130.5 181.885 139.984 180.644 151.682 180.644C163.381 180.644 172.865 181.885 172.865 183.415Z" fill="black"/>
<path opacity="0.3" d="M221.96 183.415C221.96 184.946 212.476 186.187 200.778 186.187C189.079 186.187 179.596 184.946 179.596 183.415C179.596 181.885 189.079 180.644 200.778 180.644C212.476 180.644 221.96 181.885 221.96 183.415Z" fill="black"/>
<path d="M153.998 102.308C153.998 102.308 153.132 105.895 153.132 106.514C153.132 107.133 153.008 107.628 153.008 107.628C153.008 107.628 151.152 109.855 151.4 110.474C151.647 111.092 152.637 111.587 152.637 111.587C152.637 111.587 153.626 115.175 154.616 115.422C155.606 115.67 157.709 115.794 157.709 115.794L158.08 118.763L163.029 118.021L161.792 113.567L162.287 109.732C162.287 109.732 163.153 108.123 162.287 105.525C161.42 102.927 159.565 102.803 158.327 102.803C157.091 102.802 153.998 102.308 153.998 102.308Z" fill="white" stroke="#263238" stroke-width="0.5" stroke-miterlimit="10" stroke-linecap="round" stroke-linejoin="round"/>
<path d="M156.225 100.452C156.225 100.452 151.895 100.328 152.018 101.441C152.142 102.555 156.596 104.04 156.596 104.04C156.596 104.04 155.112 105.029 155.854 106.019C156.596 107.009 158.329 107.875 158.329 107.875C158.329 107.875 157.834 109.978 158.576 110.102C159.318 110.226 159.813 109.112 159.937 108.741C160.061 108.369 161.422 108.493 161.793 109.483C162.165 110.473 162.165 111.091 162.165 111.091C162.165 111.091 163.649 106.637 163.896 104.658C164.143 102.679 158.576 100.452 156.225 100.452Z" fill="#263238" stroke="#263238" stroke-width="0.5" stroke-miterlimit="10" stroke-linecap="round" stroke-linejoin="round"/>
<path d="M158.971 110.145C158.971 110.145 160.463 106.855 161.361 108.471C162.259 110.088 161.893 111.779 160.995 111.959C160.097 112.138 159.379 112.318 159.379 112.318" fill="white"/>
<path d="M158.971 110.145C158.971 110.145 160.463 106.855 161.361 108.471C162.259 110.088 161.893 111.779 160.995 111.959C160.097 112.138 159.379 112.318 159.379 112.318" stroke="#263238" stroke-width="0.5" stroke-miterlimit="10" stroke-linecap="round" stroke-linejoin="round"/>
<path d="M152.884 144.498C152.64 144.777 148.677 153.282 148.183 156.128C147.688 158.974 144.471 175.924 144.347 176.666C144.223 177.408 137.418 178.893 136.924 179.017C136.429 179.14 137.418 180.501 138.904 180.873C140.388 181.244 144.595 182.976 145.584 181.986C146.574 180.997 147.935 175.429 148.307 174.81C148.677 174.191 155.642 157.784 155.642 157.784C155.642 157.784 159.21 149.906 159.952 149.164C160.694 148.422 159.071 145.117 158.452 144.127C157.833 143.137 154.616 142.518 152.884 144.498Z" fill="#263238" stroke="#263238" stroke-width="0.5" stroke-miterlimit="10" stroke-linecap="round" stroke-linejoin="round"/>
<path d="M152.142 144.621C152.142 144.621 153.875 152.911 154.74 155.88C155.607 158.85 157.338 161.448 158.328 162.809C159.318 164.17 164.143 176.171 164.143 176.171L164.886 178.027C164.886 178.027 164.638 178.769 163.277 179.759C161.916 180.749 158.081 182.357 159.07 182.729C160.06 183.1 164.019 183.1 165.875 182.976C167.731 182.852 169.34 181.862 170.082 180.997C170.824 180.131 168.845 177.656 168.845 177.161C168.845 176.667 164.515 161.572 164.267 160.83C164.02 160.088 162.783 154.768 162.783 154.768V148.704C162.783 148.704 163.402 147.59 163.402 145.116C163.402 142.641 161.546 142.146 161.546 142.146L151.4 143.136L152.142 144.621Z" fill="#263238" stroke="#263238" stroke-width="0.5" stroke-miterlimit="10" stroke-linecap="round" stroke-linejoin="round"/>
<path d="M151.275 143.879C151.275 143.879 151.523 145.982 152.265 146.106C153.007 146.23 160.678 148.332 164.019 145.858C164.019 145.858 164.638 144.002 164.266 143.508C163.895 143.013 163.029 143.26 158.575 143.26C154.121 143.26 151.275 143.26 151.275 143.879Z" fill="#003B95" stroke="#263238" stroke-width="0.5" stroke-miterlimit="10" stroke-linecap="round" stroke-linejoin="round"/>
<path d="M162.657 116.165C162.657 116.165 158.079 116.783 156.1 118.763C154.121 120.742 152.388 124.331 151.522 127.671C150.656 131.011 150.038 143.26 151.275 143.879C152.512 144.498 162.905 145.116 164.637 144.374C166.369 143.631 164.513 137.816 164.513 135.59C164.513 133.363 166.493 125.815 166.122 121.609C165.75 117.402 162.657 116.165 162.657 116.165Z" fill="#003B95" stroke="#263238" stroke-width="0.5" stroke-miterlimit="10" stroke-linecap="round" stroke-linejoin="round"/>
<path d="M146.113 129.023C146.058 123.932 143.98 119.584 141.22 117.696L141.209 116.656L133.596 116.736C129.309 116.782 125.894 122.378 125.966 129.235C126.038 136.093 129.572 141.616 133.858 141.571L141.471 141.491L141.46 140.451C144.179 138.505 146.166 134.113 146.113 129.023Z" fill="#263238" stroke="#263238" stroke-width="0.5" stroke-miterlimit="10" stroke-linecap="round" stroke-linejoin="round"/>
<path d="M149.556 128.986C149.499 123.638 147.437 119.067 144.537 117.084L144.526 115.991L141.264 116.025C136.761 116.073 133.171 121.953 133.247 129.158C133.323 136.364 137.036 142.167 141.539 142.119L144.801 142.085L144.79 140.992C147.648 138.948 149.613 134.335 149.556 128.986Z" fill="white" stroke="#263238" stroke-width="0.5" stroke-miterlimit="10" stroke-linecap="round" stroke-linejoin="round"/>
<path d="M152.818 128.952C152.894 136.158 149.304 142.038 144.801 142.085C140.297 142.132 136.585 136.33 136.509 129.124C136.433 121.919 140.022 116.039 144.526 115.992C149.029 115.944 152.742 121.746 152.818 128.952Z" fill="#737373" stroke="#263238" stroke-width="0.5" stroke-miterlimit="10" stroke-linecap="round" stroke-linejoin="round"/>
<path d="M150.953 128.728C150.989 132.143 149.288 134.93 147.153 134.952C145.018 134.975 143.259 132.225 143.223 128.809C143.187 125.394 144.888 122.607 147.022 122.585C149.157 122.562 150.917 125.313 150.953 128.728Z" fill="#263238" stroke="#263238" stroke-width="0.5" stroke-miterlimit="10" stroke-linecap="round" stroke-linejoin="round"/>
<path d="M211.571 154.36C212.244 150.184 212.11 144.796 212.11 144.796C210.44 145.567 200.686 145.848 199.791 145.872C198.896 145.848 189.142 145.567 187.472 144.796C187.472 144.796 187.337 150.184 188.011 154.36C188.684 158.535 194.611 175.237 194.745 176.046C194.88 176.854 195.419 178.336 195.419 178.336C195.419 178.336 192.052 180.76 190.57 181.703C189.088 182.646 190.165 183.05 191.647 183.05C193.129 183.05 196.227 182.646 197.17 182.646C197.999 182.646 199.453 181.917 199.791 181.742C200.13 181.917 201.583 182.646 202.412 182.646C203.355 182.646 206.453 183.05 207.934 183.05C209.416 183.05 210.493 182.646 209.012 181.703C207.531 180.76 204.163 178.336 204.163 178.336C204.163 178.336 204.701 176.854 204.836 176.046C204.971 175.237 210.897 158.535 211.571 154.36Z" fill="#263238" stroke="#263238" stroke-width="0.5" stroke-miterlimit="10" stroke-linecap="round" stroke-linejoin="round"/>
<path d="M197.754 118.62C197.754 118.62 192.545 120.327 189.851 122.033C187.158 123.739 184.464 132.988 184.464 133.347C184.464 133.706 183.835 135.233 183.835 135.233C183.835 135.233 181.141 134.605 180.603 136.849C180.064 139.094 183.297 141.968 185.003 142.058C186.709 142.148 187.248 141.609 187.248 141.609C187.248 141.609 186.17 143.764 186.619 144.661C187.068 145.56 190.84 148.882 198.293 148.792C205.746 148.702 211.134 147.445 211.942 146.368C212.75 145.29 212.84 143.045 212.84 143.045C212.84 143.045 215.624 142.327 216.612 140.531C217.599 138.735 217.42 136.849 216.881 134.964C216.342 133.078 213.559 127.6 211.673 124.547C209.787 121.494 205.836 119.788 203.95 119.249C202.064 118.711 199.011 118.62 197.754 118.62Z" fill="#003B95" stroke="#263238" stroke-width="0.5" stroke-miterlimit="10" stroke-linecap="round" stroke-linejoin="round"/>
<path d="M199.332 126.185C200.08 125.936 202.407 123.858 203.321 121.78C203.762 120.778 203.97 119.914 204.068 119.285C204.03 119.274 203.987 119.259 203.95 119.249C202.064 118.711 199.011 118.62 197.754 118.62C197.754 118.62 196.663 118.979 195.227 119.528C195.233 120.301 195.34 121.523 195.842 122.778C196.673 124.855 198.584 126.435 199.332 126.185Z" fill="white" stroke="#263238" stroke-width="0.5" stroke-miterlimit="10" stroke-linecap="round" stroke-linejoin="round"/>
<path d="M207.9 130.384C207.9 130.384 210.056 141.878 212.48 143.045" stroke="#263238" stroke-width="0.5" stroke-miterlimit="10" stroke-linecap="round" stroke-linejoin="round"/>
<path d="M187.248 141.608C187.248 141.608 189.942 131.462 190.121 130.474" stroke="#263238" stroke-width="0.5" stroke-miterlimit="10" stroke-linecap="round" stroke-linejoin="round"/>
<path d="M211.383 135.576C211.383 135.576 209.887 135.909 209.887 136.989" stroke="#263238" stroke-width="0.5" stroke-miterlimit="10" stroke-linecap="round" stroke-linejoin="round"/>
<path d="M186.035 135.742C186.035 135.742 187.697 136.823 187.531 138.485" stroke="#263238" stroke-width="0.5" stroke-miterlimit="10" stroke-linecap="round" stroke-linejoin="round"/>
<path d="M197.17 182.645C197.999 182.645 199.453 181.917 199.791 181.741C200.13 181.917 201.583 182.645 202.412 182.645C203.355 182.645 206.453 183.05 207.935 183.05C209.416 183.05 210.494 182.645 209.012 181.703C207.725 180.884 205.017 178.948 204.328 178.454C202.738 179.907 199.595 179.547 199.595 179.547C199.595 179.547 198.652 179.412 197.709 179.143C196.766 178.873 195.419 178.335 195.419 178.335C195.419 178.335 192.052 180.759 190.57 181.702C189.088 182.645 190.165 183.049 191.647 183.049C193.129 183.049 196.227 182.645 197.17 182.645Z" fill="#003B95" stroke="#263238" stroke-width="0.5" stroke-miterlimit="10" stroke-linecap="round" stroke-linejoin="round"/>
<path d="M199.594 178.386V154.898" stroke="white" stroke-width="1.0474" stroke-miterlimit="10" stroke-linecap="round" stroke-linejoin="round"/>
<path d="M199.79 181.741L199.594 179.548V178.386" stroke="#263238" stroke-width="0.5" stroke-miterlimit="10" stroke-linecap="round" stroke-linejoin="round"/>
<path d="M197.709 154.09H201.615" stroke="white" stroke-width="1.0474" stroke-miterlimit="10" stroke-linecap="round" stroke-linejoin="round"/>
<path d="M192.608 105.143C192.608 105.143 189.806 106.824 190.227 108.295C190.647 109.766 191.908 110.046 191.627 110.886C191.347 111.727 190.366 112.217 191.487 112.707C192.608 113.197 193.448 113.337 193.448 113.337C193.448 113.337 194.499 116.909 196.25 117.539C198.001 118.169 201.082 117.749 203.253 117.469C205.424 117.189 206.194 115.578 206.405 114.808C206.614 114.037 205.494 114.948 204.934 114.108C204.374 113.267 205.214 111.096 205.844 109.206C206.475 107.315 204.584 103.743 202.133 102.552C199.681 101.362 194.989 101.992 192.608 105.143Z" fill="#263238" stroke="#263238" stroke-width="0.5" stroke-miterlimit="10" stroke-linecap="round" stroke-linejoin="round"/>
<path d="M197.305 117.363C197.305 117.363 196.677 119.428 196.587 120.955C196.497 122.482 197.754 124.188 199.101 124.098C200.448 124.008 201.615 121.314 201.795 119.968C201.974 118.621 201.346 115.029 201.346 115.029C201.346 115.029 199.28 115.119 198.472 115.837C197.665 116.555 197.305 117.363 197.305 117.363Z" fill="white" stroke="#263238" stroke-width="0.5" stroke-miterlimit="10" stroke-linecap="round" stroke-linejoin="round"/>
<path d="M195.479 107.104C195.479 107.104 195.549 109.205 197.65 111.236C199.751 113.267 202.062 114.038 202.062 114.038C202.062 114.038 201.992 114.878 201.712 115.369C201.431 115.859 201.011 115.859 200.731 115.859C200.451 115.859 200.031 115.859 200.031 115.859C200.031 115.859 199.015 118.271 197.755 118.621C196.494 118.971 193.449 118.73 193.028 115.649C192.608 112.568 192.538 110.046 192.888 109.416C193.238 108.785 195.479 107.104 195.479 107.104Z" fill="white" stroke="#263238" stroke-width="0.5" stroke-miterlimit="10" stroke-linecap="round" stroke-linejoin="round"/>
<path d="M217.492 134.214C217.492 134.214 218.061 133.076 218.061 132.139C218.061 131.202 216.321 129.864 215.987 129.529C215.652 129.195 215.351 129.228 215.284 129.696C215.217 130.165 215.551 130.767 215.886 131.102C216.221 131.436 216.402 131.683 216.429 131.911C216.455 132.139 215.853 133.277 216.154 134.013C216.455 134.749 217.325 134.983 217.492 134.214Z" fill="white" stroke="#263238" stroke-width="0.5" stroke-miterlimit="10" stroke-linecap="round" stroke-linejoin="round"/>
<path d="M147.828 128.959C147.828 128.959 155.371 131.384 159.951 137.041C164.53 142.698 167.494 141.89 173.151 140.004C178.808 138.118 180.964 131.384 188.776 137.041C196.588 142.698 198.204 144.853 204.67 141.62C211.135 138.388 214.637 130.575 220.564 133.269C226.491 135.963 223.797 149.702 224.335 156.437C224.874 163.172 224.066 179.874 225.413 182.029C226.76 184.185 240.499 182.568 240.499 182.568" stroke="#263238" stroke-width="3" stroke-miterlimit="10" stroke-linecap="round" stroke-linejoin="round"/>
<path d="M162.009 119.97C162.009 119.97 160.498 117.511 158.277 118.153C155.93 118.833 154.713 122.193 154.15 124.288C153.585 126.392 153.233 128.641 152.222 130.591C152.222 130.591 147.767 130.514 145.285 129.798C142.804 129.082 139.696 127.754 139.696 127.754C139.696 127.754 138.817 126.526 138.196 126.285C137.574 126.044 135.961 125.566 135.841 125.939C135.721 126.311 137.714 127.528 137.714 127.528C137.714 127.528 134.008 128.061 133.641 128.437C133.273 128.812 136.256 130.018 136.256 130.018C136.256 130.018 137.373 130.377 140.089 129.73C140.089 129.73 150.054 136.059 152.041 136.78C154.029 137.501 155.144 137.737 156.478 135.125C157.811 132.512 162.321 126.031 163.036 123.425" fill="#003B95"/>
<path d="M162.009 119.97C162.009 119.97 160.498 117.511 158.277 118.153C155.93 118.833 154.713 122.193 154.15 124.288C153.585 126.392 153.233 128.641 152.222 130.591C152.222 130.591 147.767 130.514 145.285 129.798C142.804 129.082 139.696 127.754 139.696 127.754C139.696 127.754 138.817 126.526 138.196 126.285C137.574 126.044 135.961 125.566 135.841 125.939C135.721 126.311 137.714 127.528 137.714 127.528C137.714 127.528 134.008 128.061 133.641 128.437C133.273 128.812 136.256 130.018 136.256 130.018C136.256 130.018 137.373 130.377 140.089 129.73C140.089 129.73 150.054 136.059 152.041 136.78C154.029 137.501 155.144 137.737 156.478 135.125C157.811 132.512 162.321 126.031 163.036 123.425" stroke="#263238" stroke-width="0.5" stroke-miterlimit="10" stroke-linecap="round" stroke-linejoin="round"/>
<path d="M142.295 128.786C140.841 128.242 139.696 127.753 139.696 127.753C139.696 127.753 138.817 126.525 138.196 126.284C137.574 126.043 135.961 125.565 135.841 125.938C135.721 126.31 137.714 127.527 137.714 127.527C137.714 127.527 134.008 128.061 133.641 128.436C133.273 128.811 136.256 130.016 136.256 130.016C136.256 130.016 137.373 130.376 140.089 129.728C140.089 129.728 140.631 130.072 141.482 130.606L142.295 128.786Z" fill="white" stroke="#263238" stroke-width="0.5" stroke-miterlimit="10" stroke-linecap="round" stroke-linejoin="round"/>
<path d="M180.7 135.159C180.7 135.159 180.131 134.021 180.131 133.084C180.131 132.147 181.871 130.809 182.205 130.474C182.54 130.139 182.841 130.173 182.908 130.641C182.975 131.11 182.641 131.712 182.306 132.046C181.971 132.381 181.79 132.628 181.764 132.856C181.737 133.083 182.339 134.221 182.038 134.957C181.737 135.694 180.867 135.928 180.7 135.159Z" fill="white" stroke="#263238" stroke-width="0.5" stroke-miterlimit="10" stroke-linecap="round" stroke-linejoin="round"/>
<path d="M181.9 132.335C181.9 132.335 180.467 134.985 181.298 135.918C182.13 136.851 182.94 133.777 183.093 132.922C183.245 132.068 182.432 131.222 181.9 132.335Z" fill="white" stroke="#263238" stroke-width="0.5" stroke-miterlimit="10" stroke-linecap="round" stroke-linejoin="round"/>
<path d="M183.084 133.261C183.084 133.261 181.651 135.911 182.482 136.844C183.313 137.777 184.124 134.703 184.276 133.848C184.429 132.994 183.615 132.149 183.084 133.261Z" fill="white" stroke="#263238" stroke-width="0.5" stroke-miterlimit="10" stroke-linecap="round" stroke-linejoin="round"/>
<path d="M184.383 133.509C184.383 133.509 182.95 136.158 183.781 137.092C184.612 138.025 185.423 134.95 185.576 134.096C185.728 133.241 184.914 132.396 184.383 133.509Z" fill="white" stroke="#263238" stroke-width="0.5" stroke-miterlimit="10" stroke-linecap="round" stroke-linejoin="round"/>
<path d="M186.05 133.527C186.05 133.527 184.713 135.61 185.446 136.364C186.179 137.117 186.962 134.695 187.114 133.99C187.265 133.285 186.547 132.604 186.05 133.527Z" fill="white" stroke="#263238" stroke-width="0.5" stroke-miterlimit="10" stroke-linecap="round" stroke-linejoin="round"/>
<path d="M216.535 132.44C216.535 132.44 217.969 135.09 217.137 136.023C216.306 136.956 215.495 133.882 215.343 133.027C215.19 132.172 216.004 131.327 216.535 132.44Z" fill="white" stroke="#263238" stroke-width="0.5" stroke-miterlimit="10" stroke-linecap="round" stroke-linejoin="round"/>
<path d="M215.352 133.367C215.352 133.367 216.785 136.016 215.954 136.949C215.123 137.882 214.312 134.808 214.159 133.953C214.007 133.099 214.821 132.253 215.352 133.367Z" fill="white" stroke="#263238" stroke-width="0.5" stroke-miterlimit="10" stroke-linecap="round" stroke-linejoin="round"/>
<path d="M214.051 133.614C214.051 133.614 215.484 136.263 214.653 137.197C213.822 138.13 213.011 135.055 212.859 134.201C212.706 133.346 213.52 132.501 214.051 133.614Z" fill="white" stroke="#263238" stroke-width="0.5" stroke-miterlimit="10" stroke-linecap="round" stroke-linejoin="round"/>
<path d="M212.385 133.632C212.385 133.632 213.721 135.714 212.989 136.468C212.256 137.222 211.473 134.8 211.321 134.095C211.17 133.391 211.889 132.709 212.385 133.632Z" fill="white" stroke="#263238" stroke-width="0.5" stroke-miterlimit="10" stroke-linecap="round" stroke-linejoin="round"/>
<path d="M35.4026 162.943V165.865C35.4026 165.865 33.8975 167.37 33.2776 169.761C32.6578 172.152 30.7098 182.423 31.2412 182.689C31.7725 182.954 36.5857 184.064 38.1376 183.832C39.9086 183.566 41.4137 183.655 40.5285 182.68C39.6432 181.707 34.9602 178.97 34.9602 178.97C34.9602 178.97 40.0959 171.532 41.2466 168.787C42.3978 166.042 42.5747 161.792 42.5747 161.792L35.6685 161.527L35.4026 162.943Z" fill="white" stroke="#263238" stroke-width="0.5" stroke-miterlimit="10" stroke-linecap="round" stroke-linejoin="round"/>
<path d="M38.1369 183.831C39.9079 183.566 41.413 183.655 40.5278 182.68C39.6425 181.707 34.9595 178.969 34.9595 178.969L34.7826 180.032L31.4138 179.62C31.168 181.336 31.0594 182.597 31.241 182.689C31.7719 182.954 36.5855 184.064 38.1369 183.831Z" fill="#263238" stroke="#263238" stroke-width="0.5" stroke-miterlimit="10" stroke-linecap="round" stroke-linejoin="round"/>
<path d="M52.3141 164.456L53.1108 165.872C53.1108 165.872 52.0481 167.555 52.8454 170.034C53.6422 172.513 55.5017 181.633 55.5017 182.164C55.5017 182.695 56.6529 183.049 57.5382 183.049C58.4234 183.049 60.9681 183.224 61.3225 183.224C61.677 183.224 64.2443 183.667 65.1301 183.135C66.0153 182.604 64.002 181.544 62.6738 180.924C61.3457 180.304 58.424 178.711 58.424 178.711C58.424 178.711 59.1323 171.45 59.1323 168.263C59.1323 165.075 59.8406 164.013 58.8669 162.065C57.8931 160.117 51.7832 162.95 51.7832 162.95L52.3141 164.456Z" fill="white" stroke="#263238" stroke-width="0.5" stroke-miterlimit="10" stroke-linecap="round" stroke-linejoin="round"/>
<path d="M62.6733 180.925C61.3451 180.305 58.4234 178.711 58.4234 178.711L58.0695 180.04L55.2285 180.551C55.3972 181.433 55.5017 182.039 55.5017 182.165C55.5017 182.696 56.6529 183.05 57.5381 183.05C58.4234 183.05 60.9681 183.224 61.3225 183.224C61.6764 183.224 64.2442 183.667 65.13 183.136C66.0147 182.604 64.0014 181.545 62.6733 180.925Z" fill="#263238" stroke="#263238" stroke-width="0.5" stroke-miterlimit="10" stroke-linecap="round" stroke-linejoin="round"/>
<path d="M47.544 105.52C47.544 105.52 46.3984 103.533 45.1762 102.159C43.954 100.784 40.1352 100.861 38.4547 102.693C36.7742 104.527 37.3092 107.734 37.9203 108.651C38.5313 109.568 39.8297 113.845 39.8297 113.845L40.1352 116.9L47.2384 119.42L45.7873 114.455C45.7873 114.455 48.5372 113.921 48.7661 113.081C48.9956 112.241 48.3078 109.338 48.3078 109.338C48.3078 109.338 49.2245 108.727 49.1478 108.192C49.0717 107.658 47.544 105.52 47.544 105.52Z" fill="white" stroke="#263238" stroke-width="0.5" stroke-miterlimit="10" stroke-linecap="round" stroke-linejoin="round"/>
<path d="M39.3713 108.804C39.3713 108.804 40.5863 109.817 41.2519 108.653C41.917 107.489 42.416 106.325 42.416 105.327C42.416 104.329 39.9212 103.498 41.5842 102.832C43.2472 102.167 44.4442 103.647 45.1762 102.158C45.9082 100.67 45.2431 100.504 41.2519 100.504C37.2608 100.504 35.2649 102.499 36.0962 104.994C36.928 107.489 38.591 110.316 38.591 110.316L39.3713 108.804Z" fill="#263238" stroke="#263238" stroke-width="0.5" stroke-miterlimit="10" stroke-linecap="round" stroke-linejoin="round"/>
<path d="M47.7739 107.276C47.7739 108.331 46.919 109.186 45.8645 109.186C44.81 109.186 43.9551 108.331 43.9551 107.276C43.9551 106.222 44.81 105.367 45.8645 105.367C46.919 105.367 47.7739 106.222 47.7739 107.276Z" stroke="#263238" stroke-width="0.5" stroke-miterlimit="10" stroke-linecap="round" stroke-linejoin="round"/>
<path d="M47.4941 105.584C47.7092 105.493 47.9453 105.443 48.1927 105.443C49.1839 105.443 49.9874 106.247 49.9874 107.239C49.9874 107.913 49.615 108.501 49.0641 108.808" stroke="#263238" stroke-width="0.5" stroke-miterlimit="10" stroke-linecap="round" stroke-linejoin="round"/>
<path d="M43.9538 107.276L39.3711 108.804" stroke="#263238" stroke-width="0.5" stroke-miterlimit="10" stroke-linecap="round" stroke-linejoin="round"/>
<path d="M40.6689 109.797C40.6689 109.797 39.7522 107.887 38.8356 108.269C37.9189 108.651 38.3773 111.629 39.2939 111.935C40.2105 112.24 41.0505 111.477 41.0505 111.477C41.0505 111.477 41.8144 113.08 42.7311 113.539" fill="white"/>
<path d="M40.6689 109.797C40.6689 109.797 39.7522 107.887 38.8356 108.269C37.9189 108.651 38.3773 111.629 39.2939 111.935C40.2105 112.24 41.0505 111.477 41.0505 111.477C41.0505 111.477 41.8144 113.08 42.7311 113.539" stroke="#263238" stroke-width="0.5" stroke-miterlimit="10" stroke-linecap="round" stroke-linejoin="round"/>
<path d="M34.6821 144.065L34.1122 151.379L32.4023 162.207C32.4023 162.207 36.3919 165.341 40.0961 165.341C43.8002 165.341 44.8454 164.867 44.8454 164.867L46.9349 153.753L49.0243 165.437C49.0243 165.437 53.1086 164.771 55.8631 164.107C58.6177 163.442 61.1824 161.637 61.1824 161.637L55.6733 147.295L54.4773 139.899C54.4773 139.899 48.3031 140.469 44.599 140.658C40.8944 140.848 35.9552 139.899 35.9552 139.899L34.6821 144.065Z" fill="#003B95" stroke="#263238" stroke-width="0.5" stroke-miterlimit="10" stroke-linecap="round" stroke-linejoin="round"/>
<path d="M38.5965 114.861C38.5965 114.861 47.3452 117.914 50.0391 120.877C51.5324 122.52 53.2031 133.784 53.8054 136.537C54.4078 139.289 55.4582 144.785 55.4582 144.785C55.4582 144.785 50.125 147.193 45.996 147.28C41.867 147.366 33.9531 145.473 33.9531 145.473C33.9531 145.473 34.897 133.27 34.897 127.592C34.897 121.915 34.9829 118.216 35.9294 116.41C35.9294 116.41 37.4782 114.689 38.5965 114.861Z" fill="#263238" stroke="#263238" stroke-width="0.5" stroke-miterlimit="10" stroke-linecap="round" stroke-linejoin="round"/>
<path d="M36.2977 146.344C36.2977 146.344 36.7725 154.323 36.2977 157.268C35.8229 160.212 34.5879 162.777 34.5879 162.777" stroke="#263238" stroke-width="0.5" stroke-miterlimit="10" stroke-linecap="round" stroke-linejoin="round"/>
<path d="M36.4863 150.144C36.4863 150.144 38.6709 149.574 39.336 146.914" stroke="#263238" stroke-width="0.5" stroke-miterlimit="10" stroke-linecap="round" stroke-linejoin="round"/>
<path d="M32.877 160.687C32.877 160.687 37.6263 164.772 45.035 163.252" stroke="#263238" stroke-width="0.5" stroke-miterlimit="10" stroke-linecap="round" stroke-linejoin="round"/>
<path d="M48.8359 163.062C48.8359 163.062 56.6248 162.207 60.044 159.927" stroke="#263238" stroke-width="0.5" stroke-miterlimit="10" stroke-linecap="round" stroke-linejoin="round"/>
<path d="M83.6718 111.189C83.6718 111.189 82.9223 111.747 80.3036 113.658C77.6848 115.568 79.7496 118.464 79.7496 118.464C79.7496 118.464 77.8751 118.757 75.3762 121.382C72.8778 124.008 76.4904 128.523 79.8735 129.23C83.2567 129.937 87.2005 125.75 88.3867 121.876C89.5729 118.001 88.0045 112.147 87.218 110.939C86.4315 109.731 83.6718 111.189 83.6718 111.189Z" fill="#263238" stroke="#263238" stroke-width="0.5" stroke-miterlimit="10" stroke-linecap="round" stroke-linejoin="round"/>
<path d="M93.5889 110.646C93.5889 110.646 94.8934 108.632 93.7114 105.718C92.5293 102.804 89.0191 101.47 85.5912 103.581C82.1628 105.692 82.5152 109.071 82.85 110.42C83.1849 111.768 84.8736 113.841 85.2245 113.869C85.5748 113.896 88.6606 115.02 90.766 114.039C92.8708 113.058 93.5889 110.646 93.5889 110.646Z" fill="#263238" stroke="#263238" stroke-width="0.5" stroke-miterlimit="10" stroke-linecap="round" stroke-linejoin="round"/>
<path d="M78.4512 178.527C78.4512 178.527 80.8914 182.331 85.1259 182.977C89.3603 183.623 85.5564 179.819 84.8389 179.245C84.1213 178.67 79.0252 177.45 78.4512 178.527Z" fill="#737373" stroke="#263238" stroke-width="0.5" stroke-miterlimit="10" stroke-linecap="round" stroke-linejoin="round"/>
<path d="M101.06 179.531C101.06 179.531 105.725 180.679 105.367 181.685C105.008 182.689 101.204 182.618 98.9792 182.044C96.7545 181.47 94.6727 180.608 94.9603 179.675C95.2468 178.742 101.06 179.531 101.06 179.531Z" fill="#737373" stroke="#263238" stroke-width="0.5" stroke-miterlimit="10" stroke-linecap="round" stroke-linejoin="round"/>
<path d="M87.7917 118.214C87.7917 118.214 81.5475 119.134 80.4046 121.337C79.2616 123.54 80.8737 135.569 80.8737 135.569C80.8737 135.569 78.2081 141.443 78.1747 145.232C78.1418 149.021 79.8228 155.678 79.6922 157.343C79.5615 159.008 77.8496 177.907 77.8496 178.435C77.8496 178.962 81.4534 180.105 86.6395 180.72C91.8256 181.335 101.758 179.49 101.758 179.49C101.758 179.49 101.56 168.33 102.083 161.67C102.606 155.01 101.858 149.033 100.555 146.55C99.2508 144.067 93.0766 135.117 93.0766 135.117C93.0766 135.117 96.0585 129.709 96.2442 127.343C96.4299 124.977 95.4679 123.755 93.2139 121.021C90.9598 118.287 87.7917 118.214 87.7917 118.214Z" fill="#003B95" stroke="#263238" stroke-width="0.5" stroke-miterlimit="10" stroke-linecap="round" stroke-linejoin="round"/>
<path d="M93.0762 135.117C93.0762 135.117 96.0581 129.708 96.2438 127.342C96.4295 124.977 95.4676 123.755 93.2135 121.021C93.1045 120.888 92.9913 120.767 92.8781 120.647L92.7958 120.723C90.4816 124.502 82.8301 130.962 80.5487 132.845C80.7242 134.454 80.8733 135.569 80.8733 135.569C80.8733 135.569 78.2078 141.443 78.1743 145.232C78.1615 146.674 78.3976 148.53 78.6872 150.369C84.0934 147.26 91.3283 141.509 95.2397 138.289C94.017 136.481 93.0762 135.117 93.0762 135.117Z" fill="#737373" stroke="#263238" stroke-width="0.5" stroke-miterlimit="10" stroke-linecap="round" stroke-linejoin="round"/>
<path d="M86.6387 113.803C86.6387 113.803 87.0044 117.006 86.9216 118.058C86.8388 119.109 87.1788 121.516 88.9709 122.275C90.763 123.033 91.904 121.976 91.8988 120.918C91.8937 119.859 91.3973 118.322 91.3973 118.322L91.4492 115.416C91.4492 115.416 88.3382 113.496 86.6387 113.803Z" fill="white" stroke="#263238" stroke-width="0.5" stroke-miterlimit="10" stroke-linecap="round" stroke-linejoin="round"/>
<path d="M85.0256 111.913C85.0256 111.913 83.7062 110.751 83.663 112.423C83.6198 114.095 85.163 114.657 85.5066 114.772C85.8502 114.888 86.3157 114.571 86.3157 114.571C86.3157 114.571 88.7122 116.611 90.6402 116.762C92.5681 116.914 93.3448 116.005 93.7954 112.514C94.246 109.022 90.6448 105.477 90.6448 105.477C90.6448 105.477 87.5549 111.142 85.0256 111.913Z" fill="white" stroke="#263238" stroke-width="0.5" stroke-miterlimit="10" stroke-linecap="round" stroke-linejoin="round"/>
<path d="M55.5876 144.696C55.5876 144.696 55.5526 143.65 55.8746 142.949C56.1961 142.249 57.9563 141.846 58.321 141.71C58.6863 141.575 58.8997 141.704 58.7891 142.077C58.6785 142.449 58.2218 142.785 57.8565 142.92C57.4918 143.055 57.2717 143.178 57.1734 143.339C57.0752 143.5 57.1349 144.557 56.6575 145.004C56.1791 145.452 55.4487 145.329 55.5876 144.696Z" fill="white" stroke="#263238" stroke-width="0.5" stroke-miterlimit="10" stroke-linecap="round" stroke-linejoin="round"/>
<path d="M95.0281 129.229C95.0281 129.229 88.8323 128.421 86.1384 132.731C83.4446 137.041 78.3259 152.127 68.8971 154.552C59.4684 156.976 56.7745 137.58 51.1173 138.119C45.727 138.632 41.9581 138.119 38.7251 144.046C36.9942 147.218 28.3566 181.872 24.2687 182.228C11.2614 183.361 2.88867 182.624 2.88867 182.624" stroke="#263238" stroke-width="3" stroke-miterlimit="10" stroke-linecap="round" stroke-linejoin="round"/>
<path d="M38.9955 115.107C38.9955 115.107 37.5706 114.537 35.671 115.677C33.7714 116.817 28.6419 129.26 29.022 130.59C29.4021 131.919 34.8161 134.389 37.8556 135.244C40.8951 136.099 46.4042 137.144 46.4042 137.144C46.4042 137.144 48.1141 139.804 48.684 139.898C49.2539 139.993 51.1536 139.613 51.1536 139.613C51.1536 139.613 52.1983 140.468 52.5784 139.518C52.9586 138.568 52.1983 137.333 51.3439 136.383C50.489 135.433 46.8795 134.958 46.8795 134.958L37.0958 128.214L41.1801 120.616" fill="#263238"/>
<path d="M38.9955 115.107C38.9955 115.107 37.5706 114.537 35.671 115.677C33.7714 116.817 28.6419 129.26 29.022 130.59C29.4021 131.919 34.8161 134.389 37.8556 135.244C40.8951 136.099 46.4042 137.144 46.4042 137.144C46.4042 137.144 48.1141 139.804 48.684 139.898C49.2539 139.993 51.1536 139.613 51.1536 139.613C51.1536 139.613 52.1983 140.468 52.5784 139.518C52.9586 138.568 52.1983 137.333 51.3439 136.383C50.489 135.433 46.8795 134.958 46.8795 134.958L37.0958 128.214L41.1801 120.616" stroke="#263238" stroke-width="0.5" stroke-miterlimit="10" stroke-linecap="round" stroke-linejoin="round"/>
<path d="M48.684 139.899C49.2539 139.994 51.1535 139.614 51.1535 139.614C51.1535 139.614 52.1983 140.469 52.5784 139.519C52.9585 138.568 52.1983 137.334 51.3439 136.384C50.489 135.434 46.8795 134.959 46.8795 134.959L37.0958 128.215L38.5567 125.497C34.8952 123.217 32.4715 123.387 31.1603 123.845C29.8465 126.991 28.8466 129.975 29.022 130.589C29.4021 131.919 34.816 134.389 37.8556 135.243C40.8951 136.098 46.4042 137.143 46.4042 137.143C46.4042 137.143 48.114 139.803 48.684 139.899Z" fill="white" stroke="#263238" stroke-width="0.5" stroke-miterlimit="10" stroke-linecap="round" stroke-linejoin="round"/>
<path d="M109.873 129.44C109.457 124.95 107.306 121.263 104.733 119.796L104.648 118.879L97.9338 119.502C94.1535 119.852 91.544 125.04 92.1052 131.088C92.6664 137.136 96.1859 141.756 99.9661 141.405L106.68 140.782L106.596 139.864C108.855 137.95 110.29 133.93 109.873 129.44Z" fill="#263238" stroke="#263238" stroke-width="0.5" stroke-miterlimit="10" stroke-linecap="round" stroke-linejoin="round"/>
<path d="M112.91 129.159C112.473 124.441 110.321 120.557 107.617 119.016L107.528 118.052L104.651 118.319C100.679 118.688 97.9375 124.138 98.527 130.493C99.1165 136.848 102.814 141.701 106.787 141.333L109.663 141.066L109.574 140.102C111.948 138.09 113.348 133.876 112.91 129.159Z" fill="white" stroke="#263238" stroke-width="0.5" stroke-miterlimit="10" stroke-linecap="round" stroke-linejoin="round"/>
<path d="M115.786 128.892C116.375 135.247 113.634 140.698 109.662 141.066C105.689 141.434 101.992 136.581 101.402 130.226C100.813 123.871 103.554 118.42 107.526 118.052C111.498 117.683 115.196 122.536 115.786 128.892Z" fill="white" stroke="#263238" stroke-width="0.5" stroke-miterlimit="10" stroke-linecap="round" stroke-linejoin="round"/>
<path d="M118.887 125.175L107.728 126.211C107.07 126.272 106.488 125.788 106.427 125.131C106.366 124.473 106.85 123.89 107.507 123.829L118.666 122.794C119.323 122.732 119.906 123.217 119.967 123.874C120.028 124.532 119.544 125.114 118.887 125.175Z" fill="#737373" stroke="#263238" stroke-width="0.5" stroke-miterlimit="10" stroke-linecap="round" stroke-linejoin="round"/>
<path d="M119.707 134.02L108.548 135.056C107.891 135.117 107.308 134.633 107.247 133.976C107.186 133.318 107.67 132.735 108.328 132.674L119.486 131.639C120.144 131.577 120.726 132.061 120.787 132.719C120.848 133.377 120.365 133.96 119.707 134.02Z" fill="#737373" stroke="#263238" stroke-width="0.5" stroke-miterlimit="10" stroke-linecap="round" stroke-linejoin="round"/>
<path d="M83.9334 119.057C83.9334 119.057 81.2493 119.551 79.9793 121.127C78.7092 122.703 76.1013 134.577 76.699 135.947C77.2967 137.316 86.9482 139.044 89.9276 139.278C92.9069 139.512 97.0945 138.959 97.0945 138.959C97.0945 138.959 99.6562 138.896 100.371 138.776C101.086 138.655 102.375 137.963 102.395 137.7C102.416 137.437 102.289 136.81 101.325 136.734C100.361 136.658 98.2992 135.967 98.0364 135.947C97.7735 135.926 99.918 135.565 99.918 135.565C99.918 135.565 100.047 135.046 98.9885 135.052C97.9299 135.057 96.9659 134.981 96.5673 135.567C96.1686 136.153 95.8369 137.008 95.8369 137.008C95.8369 137.008 89.8967 137.423 86.6699 135.847C83.4432 134.271 82.4262 133.751 82.4262 133.751L84.7399 124.498" fill="#003B95"/>
<path d="M83.9334 119.057C83.9334 119.057 81.2493 119.551 79.9793 121.127C78.7092 122.703 76.1013 134.577 76.699 135.947C77.2967 137.316 86.9482 139.044 89.9276 139.278C92.9069 139.512 97.0945 138.959 97.0945 138.959C97.0945 138.959 99.6562 138.896 100.371 138.776C101.086 138.655 102.375 137.963 102.395 137.7C102.416 137.437 102.289 136.81 101.325 136.734C100.361 136.658 98.2992 135.967 98.0364 135.947C97.7735 135.926 99.918 135.565 99.918 135.565C99.918 135.565 100.047 135.046 98.9885 135.052C97.9299 135.057 96.9659 134.981 96.5673 135.567C96.1686 136.153 95.8369 137.008 95.8369 137.008C95.8369 137.008 89.8967 137.423 86.6699 135.847C83.4432 134.271 82.4262 133.751 82.4262 133.751L84.7399 124.498" stroke="#263238" stroke-width="0.5" stroke-miterlimit="10" stroke-linecap="round" stroke-linejoin="round"/>
<path d="M100.371 138.776C101.086 138.655 102.375 137.963 102.395 137.7C102.416 137.437 102.289 136.81 101.325 136.734C100.361 136.659 98.2992 135.967 98.0363 135.947C97.7735 135.926 99.918 135.565 99.918 135.565C99.918 135.565 100.047 135.046 98.9885 135.052C97.9299 135.057 96.9659 134.981 96.5673 135.567C96.1686 136.153 95.8368 137.008 95.8368 137.008C95.8368 137.008 89.8967 137.423 86.6699 135.847C83.4431 134.271 82.4262 133.751 82.4262 133.751L83.8372 128.109C81.7035 127.195 79.5235 126.827 78.0914 126.681C77.129 130.561 76.342 135.128 76.699 135.946C77.2967 137.315 86.9482 139.044 89.9275 139.278C92.9069 139.512 97.0945 138.959 97.0945 138.959C97.0945 138.959 99.6562 138.896 100.371 138.776Z" fill="white" stroke="#263238" stroke-width="0.5" stroke-miterlimit="10" stroke-linecap="round" stroke-linejoin="round"/>
<path d="M56.9118 143.699C56.9118 143.699 54.9314 145.188 55.2323 146.171C55.5332 147.154 57.1947 145.133 57.6021 144.547C58.0095 143.96 57.6911 143.049 56.9118 143.699Z" fill="white" stroke="#263238" stroke-width="0.5" stroke-miterlimit="10" stroke-linecap="round" stroke-linejoin="round"/>
<path d="M57.3044 145.031C57.3044 145.031 55.3235 146.519 55.625 147.502C55.9259 148.485 57.5874 146.465 57.9948 145.879C58.4022 145.292 58.0837 144.381 57.3044 145.031Z" fill="white" stroke="#263238" stroke-width="0.5" stroke-miterlimit="10" stroke-linecap="round" stroke-linejoin="round"/>
<path d="M58.2477 145.895C58.2477 145.895 56.2673 147.383 56.5682 148.366C56.8691 149.349 58.5306 147.329 58.938 146.743C59.3454 146.156 59.027 145.245 58.2477 145.895Z" fill="white" stroke="#263238" stroke-width="0.5" stroke-miterlimit="10" stroke-linecap="round" stroke-linejoin="round"/>
<path d="M59.0226 146.597C59.0226 146.597 57.3086 147.695 57.5972 148.51C57.8863 149.325 59.3034 147.784 59.6583 147.309C60.0133 146.833 59.7103 146.077 59.0226 146.597Z" fill="white" stroke="#263238" stroke-width="0.5" stroke-miterlimit="10" stroke-linecap="round" stroke-linejoin="round"/>
</g>
<defs>
<clipPath id="clip0_263_494">
<rect width="240" height="240" fill="white" transform="translate(0.5)"/>
</clipPath>
</defs>
</svg>
