<svg width="45" height="49" viewBox="0 0 45 49" fill="none" xmlns="http://www.w3.org/2000/svg">
<path d="M0 5.40002C4.52271 5.40002 9.04542 5.40002 13.7052 5.40002C14.0946 6.0877 14.4839 6.77537 14.8851 7.48388C15.5077 8.57654 16.1358 9.66559 16.7721 10.751C17.1142 11.3363 17.4537 11.9234 17.7895 12.5123C18.1807 13.1982 18.5764 13.8804 18.9749 14.5617C19.0275 14.6532 19.0811 14.7439 19.1355 14.8372C19.3906 15.2739 19.6474 15.7097 19.9106 16.1428C19.9578 16.2207 20.005 16.2995 20.0531 16.3801C20.1412 16.5269 20.2301 16.6728 20.3209 16.8186C20.6022 17.2907 20.6022 17.2907 20.605 17.5933C20.4788 17.8923 20.3291 18.1722 20.1666 18.4522C20.1312 18.5138 20.0958 18.5754 20.0595 18.6388C19.5875 19.4579 19.0974 20.2661 18.6064 21.0742C18.3604 20.8532 18.2116 20.614 18.0482 20.3277C17.9928 20.2316 17.9384 20.1365 17.8812 20.0377C17.8231 19.9354 17.765 19.8321 17.7042 19.7261C17.6434 19.6192 17.5817 19.5123 17.5199 19.4053C17.3375 19.0855 17.1551 18.7666 16.9726 18.4468C16.7893 18.126 16.606 17.8053 16.4226 17.4846C16.3791 17.4085 16.3355 17.3324 16.291 17.2544C15.839 16.4635 15.3788 15.678 14.9187 14.8924C14.3659 13.9484 13.8186 13.0025 13.2722 12.0557C13.2123 11.9524 13.1524 11.8491 13.0907 11.7422C12.9745 11.5411 12.8584 11.3399 12.7422 11.1379C12.6605 10.9974 12.6605 10.9974 12.5779 10.8534C12.5307 10.7718 12.4826 10.6894 12.4345 10.6051C12.3746 10.5018 12.3147 10.3986 12.253 10.2926C12.194 10.1576 12.194 10.1576 12.1341 10.0189C11.8691 9.4418 11.8691 9.4418 11.3581 9.11019C11.0349 9.07939 10.7282 9.08301 10.4041 9.09932C10.288 9.10113 10.1718 9.10204 10.0529 9.10385C9.74611 9.10929 9.44024 9.11835 9.13346 9.13103C8.82033 9.1419 8.5072 9.14643 8.19407 9.15187C7.5796 9.16455 6.96695 9.18267 6.3534 9.20533C6.39242 9.27328 6.43236 9.34123 6.4732 9.4119C7.09221 10.4801 7.7103 11.5492 8.31569 12.6256C8.75316 13.4011 9.20244 14.1685 9.65807 14.9341C9.97029 15.4596 10.2743 15.9878 10.5721 16.5215C10.8779 17.0678 11.1938 17.6069 11.5096 18.1469C11.9126 18.8336 12.3129 19.5222 12.7068 20.2135C13.0962 20.8958 13.4901 21.5744 13.8867 22.2521C14.3278 23.005 14.7644 23.7606 15.1964 24.5189C15.751 25.4893 16.3164 26.4524 16.8819 27.4164C17.274 26.9779 17.5317 26.4678 17.8122 25.9559C18.2905 25.0925 18.7815 24.2381 19.2871 23.39C19.347 23.2904 19.4069 23.1898 19.4677 23.0865C19.8988 22.3653 19.8988 22.3653 20.1121 22.0147C20.3917 21.5544 20.6558 21.0878 20.9127 20.614C21.1804 20.1229 21.46 19.6391 21.7377 19.1544C21.7695 19.1 21.8003 19.0447 21.833 18.9886C22.3195 18.1387 22.8114 17.2925 23.3061 16.4472C23.6891 15.7939 24.0703 15.1389 24.4497 14.4829C24.506 14.386 24.5622 14.2881 24.6194 14.1876C24.9153 13.6756 25.2094 13.1628 25.5025 12.6491C25.6242 12.4353 25.7458 12.2224 25.8674 12.0086C25.8973 11.956 25.9273 11.9035 25.9582 11.8491C26.4583 10.973 26.972 10.1059 27.4966 9.24428C27.7979 8.74869 28.0856 8.24856 28.3606 7.73847C28.6093 7.28274 28.8671 6.83154 29.124 6.37944C29.399 5.89471 29.399 5.89471 29.6794 5.40002C31.0572 5.40002 32.435 5.40002 33.8545 5.40002C33.6503 6.01068 33.6503 6.01068 33.4951 6.26709C33.4606 6.32507 33.4252 6.38215 33.3898 6.44195C33.3526 6.50356 33.3145 6.56517 33.2755 6.62859C33.1929 6.76631 33.1112 6.90402 33.0286 7.04174C32.985 7.11422 32.9424 7.1867 32.8979 7.261C32.6746 7.63609 32.4595 8.01572 32.2435 8.39534C31.8414 9.10023 31.4339 9.8024 31.0236 10.5018C30.6824 11.0844 30.3429 11.6679 30.0143 12.2577C29.6313 12.9436 29.2329 13.6195 28.8344 14.2963C28.2454 15.2956 27.6636 16.2986 27.09 17.307C26.9438 17.5634 26.7977 17.8189 26.6507 18.0744C26.6008 18.1623 26.5499 18.2502 26.4982 18.3408C26.4011 18.5093 26.304 18.6787 26.2069 18.8481C26.1424 18.9614 26.1424 18.9614 26.0761 19.0765C26.038 19.1426 25.9999 19.2096 25.96 19.2785C25.8964 19.3918 25.8347 19.5077 25.7766 19.6246C27.5438 19.6246 29.3109 19.6246 31.1316 19.6246C31.1915 19.4452 31.2514 19.2658 31.3132 19.081C31.393 18.927 31.4784 18.7748 31.5673 18.6253C31.6181 18.5401 31.669 18.454 31.7207 18.3661C31.7751 18.2746 31.8296 18.184 31.8859 18.0898C32.0021 17.8941 32.1182 17.6984 32.2335 17.5018C32.2925 17.403 32.3506 17.3034 32.4114 17.201C32.6728 16.7552 32.926 16.304 33.1792 15.8537C33.6104 15.0881 34.0524 14.3316 34.5017 13.5778C34.8484 12.9952 35.1842 12.4072 35.5164 11.8156C35.9475 11.0482 36.3923 10.2898 36.8442 9.53331C37.4869 8.45786 38.1049 7.37153 38.7112 6.27524C38.8755 5.9826 39.0425 5.69176 39.2095 5.40002C40.5873 5.40002 41.9651 5.40002 43.3846 5.40002C43.1804 6.01159 43.1804 6.01159 43.0152 6.29065C42.9771 6.35407 42.9399 6.4184 42.9018 6.48363C42.8609 6.55249 42.8201 6.62044 42.7774 6.69111C42.6876 6.84423 42.5977 6.99825 42.5069 7.15137C42.4588 7.23382 42.4098 7.31627 42.3599 7.40053C42.0785 7.87981 41.8017 8.36182 41.524 8.84292C41.4078 9.04496 41.2907 9.247 41.1736 9.44814C41.1183 9.54508 41.062 9.64293 41.0039 9.7426C39.9574 11.5537 39.9574 11.5537 39.5272 12.2804C39.0888 13.0197 38.6604 13.7644 38.2338 14.511C37.7746 15.3156 37.3126 16.1183 36.8442 16.9174C35.8894 18.5464 34.9473 20.1818 34.0106 21.8208C33.5632 22.6036 33.1121 23.3855 32.6592 24.1656C32.4096 24.595 32.1609 25.0254 31.9131 25.4549C31.4148 26.3183 30.9147 27.1799 30.411 28.0398C29.919 28.8787 29.4344 29.7222 28.9515 30.5676C28.4741 31.4056 27.9894 32.2392 27.502 33.0709C27.1653 33.6453 26.8322 34.2225 26.5027 34.8005C26.0698 35.5598 25.6296 36.3154 25.1876 37.0692C24.8917 37.5738 24.5994 38.0794 24.3099 38.5868C24.2772 38.643 24.2455 38.6982 24.2128 38.7562C24.0585 39.0262 23.9042 39.2971 23.7508 39.568C23.4041 40.1778 23.0456 40.7775 22.6735 41.3719C22.3503 41.9001 22.0581 42.4455 21.7831 43C21.7232 43 21.6633 43 21.6015 43C21.4636 42.7971 21.4636 42.7971 21.3066 42.5189C21.2494 42.4184 21.1931 42.3187 21.1341 42.2154C20.7529 41.5295 20.7529 41.5295 20.5768 41.1916C20.4543 40.9742 20.3272 40.7785 20.1838 40.5764C19.5666 39.6713 19.5666 39.6713 19.6656 39.1395C19.8044 38.8586 19.9524 38.6085 20.1321 38.3521C20.3018 38.1093 20.447 37.8529 20.5977 37.5983C20.6667 37.4841 20.7366 37.3709 20.8056 37.2567C21.1332 36.7176 21.4427 36.1695 21.7549 35.6214C22.216 34.8132 22.6798 34.0068 23.15 33.2041C24.0984 31.585 25.0342 29.9605 25.9645 28.3315C26.4837 27.4228 27.0101 26.5185 27.5402 25.6152C27.984 24.8587 28.4224 24.0985 28.8626 23.3393C28.1955 23.2967 27.5284 23.265 26.8594 23.2451C26.549 23.236 26.2395 23.2233 25.93 23.2025C24.5913 23.0657 24.5913 23.0657 23.3832 23.5069C23.0202 23.9337 22.7978 24.4148 22.5954 24.933C22.4901 25.1994 22.3558 25.4413 22.2115 25.6886C22.1715 25.7629 22.1307 25.8381 22.0898 25.916C21.8303 26.3962 21.5562 26.8692 21.2839 27.343C21.2521 27.3974 21.2212 27.4526 21.1886 27.5088C20.7021 28.3578 20.2111 29.204 19.7164 30.0475C19.3207 30.7225 18.9295 31.3993 18.5383 32.077C18.0219 32.9721 17.5 33.8655 16.9726 34.7552C16.7512 34.5523 16.6114 34.3493 16.4671 34.0866C16.4217 34.0068 16.3772 33.9262 16.3309 33.8428C16.2819 33.755 16.2338 33.668 16.1839 33.5774C15.7274 32.7601 15.2581 31.952 14.7771 31.1483C14.3432 30.4208 13.9176 29.6914 13.511 28.9485C13.1733 28.3369 12.8157 27.738 12.4572 27.1392C11.929 26.2558 11.418 25.3652 10.9188 24.4655C10.4913 23.699 10.0447 22.9443 9.59453 22.1905C9.19336 21.52 8.80308 20.845 8.42823 20.1601C8.0906 19.5485 7.73299 18.9496 7.37448 18.3507C6.83988 17.4565 6.32254 16.555 5.81608 15.6444C5.42671 14.945 5.02281 14.2555 4.61257 13.5687C4.26676 12.9889 3.93275 12.4036 3.60238 11.8156C3.16399 11.0346 2.71108 10.2627 2.25182 9.49435C1.76352 8.67621 1.28702 7.85263 0.828664 7.01728C0.598127 6.59869 0.353975 6.18827 0.1071 5.77965C0 5.58123 0 5.58123 0 5.40002Z" fill="white"/>
</svg>
