<svg width="380" height="378" viewBox="0 0 380 378" fill="none" xmlns="http://www.w3.org/2000/svg">
<path d="M111.319 319.135C111.319 319.135 121.961 338.155 139.999 333.234C140.678 333.048 141.398 333.188 141.976 333.581C147.038 337.012 156.588 339.785 169.55 334.477C170.249 334.19 171.049 334.26 171.678 334.678C182.038 341.546 196.589 343.916 209.445 333.606C209.833 333.294 210.356 333.214 210.819 333.4C217.652 336.147 221.722 335.981 230.15 332.751C231.615 332.187 232.636 331.971 233.29 332.026C235.348 332.197 239.67 335.246 248.284 332.861C245.306 341.647 222.492 348.51 222.492 348.51L147.773 354.492L108.234 338.713L111.319 319.135Z" fill="#6784CE"/>
<path d="M45.8112 232.33C22.6557 232.999 20.2707 248.034 20.2657 251.722C20.2556 255.848 21.7601 259.606 25.2872 260.577C29.5892 261.765 31.5969 257.589 29.3477 256.059C25.9413 253.75 26.5552 251.676 28.2458 250.685C30.6358 249.292 42.6865 250.273 37.9468 269.956C36.2561 276.986 33.3227 277.957 32.4019 281.046C32.729 289.444 36.7794 288.815 45.5143 288.815C61.1123 288.815 72.3479 275.481 72.3479 259.883C72.3378 244.29 61.4041 231.882 45.8112 232.33Z" fill="#6784CE"/>
<path d="M341.192 323.523C350.083 305.233 343.306 284.447 327.818 271.27C317.785 262.736 321.977 253.483 326.827 252.658C329.66 252.175 333.061 256.2 329.534 259.335C328.563 260.195 329.791 262.505 333.414 260.804C336.035 259.571 339.834 252.029 333.504 246.112C327.567 240.557 319.838 239.576 311.677 242.524C297.357 247.702 292.924 261.478 295.375 278.52C297.181 291.099 300.426 342.432 300.426 342.432L326.988 341.979C333.318 336.741 337.897 330.306 341.192 323.523Z" fill="#6784CE"/>
<path d="M325.619 291.033C327.964 295.079 333.851 293.645 332.226 289.821C329.629 283.692 335.154 282.092 337.142 283.441C342.782 287.26 345.303 300.936 329.584 307.185C321.659 310.335 304.29 310.581 285.251 306.893C277.286 316.976 283.998 364.49 330.968 363.73C380.393 362.935 386.698 309.167 374.884 286.772C367.538 272.849 347.753 264.054 333.061 268.738C325.307 271.204 319.672 280.769 325.619 291.033Z" fill="#6784CE"/>
<path d="M238.231 321.611C238.95 321.415 239.504 321.128 239.71 320.715C240.324 319.472 238.019 318.335 237.023 316.031C235.856 313.344 236.892 310.531 238.84 309.54C241.466 308.202 245.748 309.158 248.138 312.212C250.679 315.452 258.347 330.321 233.476 343.161C253.255 349.461 267.807 326.436 268.093 320.449C269.039 300.8 255.107 292.428 243.383 292.87C232.455 293.283 228.097 301.6 228.449 310.013C228.731 316.801 234.658 322.597 238.231 321.611Z" fill="#6784CE"/>
<path d="M89.4746 347.946C90.7778 347.946 92.4232 347.936 94.3 347.901L100.509 359.011C121.395 372.325 136.218 380.793 173.07 366.81C194.741 358.588 200.034 355.766 211.532 354.759C216.87 363.162 229.348 368.501 244.765 370.176L267.337 359.076C267.337 359.076 272.832 333.41 267.443 316.373C256.982 339.101 240.025 339.916 231.376 333.118C230.777 332.645 229.922 332.675 229.379 333.214C215.305 347.111 204.804 342.376 199.903 339.473C199.285 339.106 198.52 339.101 197.881 339.433C177.528 350.1 161.311 341.602 156.38 338.401C155.51 337.833 154.367 337.969 153.633 338.703C151.806 340.52 147.801 343.504 140.983 343.856C135.398 344.148 125.898 340.137 120.364 331.609C107.634 311.99 98.8083 282.203 105.782 265.096C108.318 258.877 113.37 256.608 117.43 256.688C122.653 256.794 124.953 260.799 120.877 261.71C118.472 262.248 118.759 266.56 123.574 266.49C129.471 266.404 133.164 260.572 133.164 255.757C133.164 240.622 120.213 231.882 100.474 231.882C77.4491 231.882 58.334 253.191 58.334 276.563C58.329 299.93 66.455 347.946 89.4746 347.946Z" fill="#6784CE"/>
<path d="M123.504 373.789C136.37 378 151.012 378.372 173.694 370.201C189.524 364.5 198.088 356.943 211.537 354.759C214.174 358.905 218.546 362.301 224.151 364.888L253.43 360.148C253.43 360.148 268.923 335.624 259.332 344.238C250.673 352.012 239.06 347.327 233.601 345.511C232.75 345.229 231.82 345.38 231.09 345.903C221.087 353.078 211.537 354.764 202.365 350.809C201.232 350.321 199.98 350.215 199.049 351.031C187.582 361.054 175.712 356.807 167.299 351.514C166.278 350.87 164.965 351.026 164.069 351.831C147.349 366.905 127.65 355.765 122.538 350.135C121.914 349.451 120.978 349.154 120.067 349.325C104.308 352.218 97.2089 340.746 97.2089 340.746C91.6037 353.416 111.076 366.447 123.504 373.789Z" fill="#6784CE"/>
<path d="M246.577 350.11C238.003 355.987 222.445 360.299 216.211 360.269C230.471 374.886 268.998 376.536 289.511 371.202C318.212 363.736 326.776 346.507 326.761 327.689C326.715 275.954 278.558 272.341 274.779 258.575C273.038 252.225 275.846 249.583 278.392 248.32C281.315 246.871 284.832 248.507 284.887 249.9C284.958 251.802 281.521 251.807 283.071 254.952C283.861 256.562 286.065 256.799 288.415 255.807C292.244 254.192 294.337 250.046 293.678 245.946C291.791 234.172 282.266 226.201 269.083 226.201C254.099 226.201 240.609 236.441 237.193 251.048C232.679 270.339 252.826 284.417 261.108 303.286C270.889 326.698 256.232 343.488 246.577 350.11Z" fill="#6784CE"/>
<path d="M68.142 346.497C104.792 364.254 114.78 383.952 152.386 375.867C108.823 372.822 97.4914 335.805 103.409 319.92C105.572 314.103 110.81 309.791 116.606 308.745C119.037 308.307 122.851 308.347 124.738 310.964C125.583 312.141 125.065 313.545 123.56 314.285C122.282 314.914 120.999 315.638 121.095 317.681C121.236 320.725 126.519 322.114 130.237 318.068C133.704 314.3 131.701 304.367 126.116 299.678C118.961 293.675 108.053 292.176 97.8335 293.353C72.5044 296.266 53.7566 314.737 50.3301 341.561C55.1956 342.21 62.2802 343.659 68.142 346.497Z" fill="#6784CE"/>
<path d="M29.7203 331.493C33.9217 328.831 33.5191 324.494 33.1921 323.346C32.3317 320.322 28.1353 320.413 27.2648 323.432C27.0133 324.307 26.4095 325.032 25.217 325.339C21.1213 326.391 19.8432 316.207 25.2874 313.193C34.0424 308.347 45.8315 324.323 30.2587 341.999C46.2994 338.461 64.5139 343.574 79.2062 350.97C86.9297 342.487 92.4091 330.104 92.4091 317.414C92.4091 291.35 70.4914 270.469 47.6831 269.166C24.0094 267.813 -0.338585 283.421 0.00356455 306.853C0.355777 330.954 21.5741 336.655 29.7203 331.493Z" fill="#6784CE"/>
<path d="M199.471 149.696H152.295L153.231 153.389H200.135L199.471 149.696Z" fill="white"/>
<path d="M151.107 30.6427H85.6962C84.861 30.6427 84.071 30.2855 83.4722 29.6314C82.7678 28.8665 82.4156 27.7898 82.5062 26.6879C82.6571 24.8563 84.1113 23.4223 85.817 23.4223H88.1969C89.168 23.4223 90.1542 23.3368 90.7882 22.6978C91.397 22.089 91.6889 20.987 91.6838 19.3367C91.6637 14.3453 93.0373 10.4257 95.7645 7.69352C99.5231 3.91982 104.932 3.35628 107.82 3.35628C111.116 3.35628 112.656 5.56516 114.14 7.70359C115.8 10.0936 117.521 12.5591 121.833 12.5591H128.586C132.973 12.5591 135.726 14.6372 138.08 19.7241L138.146 19.87C139.524 22.8538 140.299 24.2828 142.775 24.2828H150.961C151.973 24.2828 152.823 24.6299 153.422 25.279C153.945 25.8526 154.237 26.6225 154.237 27.4527C154.232 29.0376 153.16 30.6427 151.107 30.6427ZM85.812 24.4287C84.6295 24.4287 83.6131 25.4551 83.5075 26.7684C83.437 27.5935 83.6936 28.3885 84.2119 28.9521C84.6195 29.3949 85.1478 29.6364 85.6962 29.6364H151.107C152.561 29.6364 153.225 28.5043 153.225 27.4577C153.225 26.3809 152.526 25.2941 150.961 25.2941H142.765C139.534 25.2941 138.518 23.0903 137.225 20.2977L137.16 20.1518C134.971 15.417 132.566 13.5704 128.581 13.5704H121.828C116.993 13.5704 115.036 10.7628 113.31 8.28222C111.845 6.18404 110.583 4.36763 107.815 4.36763C105.083 4.36763 99.9759 4.89092 96.4739 8.40801C93.943 10.949 92.67 14.6271 92.6902 19.3417C92.6952 21.2738 92.3078 22.6022 91.5027 23.4173C90.6071 24.318 89.329 24.4387 88.1969 24.4387H85.812V24.4287Z" fill="black"/>
<path d="M333.795 189.315H241.541C239.774 189.315 238.3 188.676 237.284 187.463C236.398 186.411 235.91 184.972 235.91 183.418C235.91 180.308 237.953 177.002 241.742 177.002H248.338C248.967 177.002 249.42 176.831 249.727 176.484C250.774 175.281 250.316 171.991 249.742 167.825C249.581 166.667 249.415 165.465 249.264 164.192L249.239 163.96C248.655 159.07 247.438 148.896 257.788 145.187C261.758 143.763 263.725 143.22 267.292 142.229C268.218 141.972 269.255 141.685 270.472 141.343C273.672 140.443 276.027 140.417 278.105 141.268C280.641 142.304 282.689 144.684 284.38 148.544C286.594 153.605 288.41 155.165 291.338 154.501C311.299 149.967 314.484 158.139 317.568 166.043C317.759 166.526 317.946 167.01 318.137 167.493C320.119 172.429 322.519 176.997 326.65 176.997H333.604C337.549 176.997 339.617 180.147 339.617 183.262C339.607 186.18 337.79 189.315 333.795 189.315ZM241.747 178.009C238.577 178.009 236.922 180.731 236.922 183.418C236.922 184.736 237.324 185.943 238.059 186.819C238.879 187.795 240.086 188.308 241.546 188.308H333.8C337.101 188.308 338.605 185.697 338.605 183.267C338.605 180.736 337.041 178.009 333.599 178.009H326.645C321.916 178.009 319.309 173.138 317.196 167.87C317.005 167.387 316.813 166.899 316.622 166.416C313.558 158.561 310.665 151.145 291.555 155.487C287.58 156.393 285.507 153.656 283.454 148.951C280.153 141.404 275.987 140.84 270.739 142.314C269.521 142.657 268.485 142.943 267.559 143.2C263.896 144.216 262.059 144.725 258.125 146.133C248.529 149.575 249.682 159.211 250.235 163.84L250.265 164.071C250.416 165.334 250.582 166.532 250.743 167.684C251.377 172.278 251.84 175.593 250.492 177.138C249.994 177.712 249.269 178.004 248.343 178.004H241.747V178.009Z" fill="black"/>
<path d="M130.04 198.683H47.0237C45.8765 198.683 44.7646 198.2 43.9796 197.365C43.1846 196.515 42.7871 195.403 42.8626 194.235C43.0035 192.052 44.8853 190.341 47.1495 190.341H51.2352C52.8956 190.341 54.2441 188.992 54.2441 187.332V180.675C54.2441 176.484 57.1021 172.906 61.1928 171.981L72.7202 169.379C76.9669 168.418 81.3242 170.104 83.825 173.666C85.3797 175.885 87.9257 177.208 90.6378 177.208H102.341C106.985 177.208 111.172 180.142 112.762 184.499C114.035 187.991 117.386 190.341 121.104 190.341H129.92C132.184 190.341 134.066 192.052 134.207 194.235C134.282 195.403 133.884 196.515 133.089 197.365C132.3 198.2 131.188 198.683 130.04 198.683ZM47.1495 191.347C45.4136 191.347 43.9746 192.645 43.8689 194.301C43.8136 195.186 44.1105 196.032 44.7142 196.676C45.318 197.32 46.1382 197.677 47.0237 197.677H130.04C130.926 197.677 131.746 197.32 132.35 196.676C132.954 196.032 133.256 195.186 133.195 194.301C133.089 192.645 131.645 191.347 129.915 191.347H121.099C116.958 191.347 113.225 188.736 111.811 184.846C110.367 180.881 106.558 178.215 102.336 178.215H90.6327C87.5936 178.215 84.7407 176.73 82.9947 174.245C80.7305 171.014 76.7807 169.49 72.9365 170.36L61.4091 172.962C57.7813 173.782 55.2454 176.952 55.2454 180.675V187.332C55.2454 189.546 53.4441 191.347 51.2302 191.347H47.1495Z" fill="black"/>
<path d="M88.9569 336.474L88.026 336.087C90.5619 330.034 91.9003 323.578 91.9003 317.414C91.9003 305.238 87.0449 293.499 78.2345 284.357C69.8468 275.657 58.7018 270.303 47.6523 269.669L47.7127 268.663C59.0087 269.312 70.4003 274.777 78.9591 283.657C87.9556 292.991 92.9067 304.976 92.9067 317.414C92.9117 323.704 91.5431 330.295 88.9569 336.474Z" fill="white"/>
<path d="M103.292 340.882C100.988 333.244 100.852 325.344 102.935 319.749C105.129 313.862 110.457 309.349 116.515 308.252L116.696 309.243C110.98 310.274 105.954 314.536 103.881 320.101C101.873 325.5 102.014 333.158 104.258 340.595L103.292 340.882Z" fill="white"/>
<path d="M121.406 297.172C115.257 293.992 106.904 292.815 97.8778 293.852C96.0664 294.058 94.26 294.355 92.509 294.722L92.3027 293.736C94.0839 293.358 95.9205 293.062 97.7671 292.85C106.985 291.789 115.544 293.006 121.868 296.277L121.406 297.172Z" fill="white"/>
<path d="M154.238 358.367L153.906 357.416C157.403 356.188 160.709 354.181 163.738 351.448C164.81 350.482 166.385 350.331 167.572 351.081C170.249 352.767 172.88 354.085 175.386 354.986L175.044 355.932C172.468 355.001 169.776 353.657 167.034 351.931C166.224 351.423 165.147 351.534 164.412 352.198C161.283 355.021 157.861 357.099 154.238 358.367Z" fill="white"/>
<path d="M190.844 356.47L190.521 355.519C193.369 354.553 196.127 352.917 198.723 350.648C199.694 349.803 201.058 349.692 202.567 350.346C204.721 351.272 206.925 351.896 209.123 352.188L208.993 353.184C206.703 352.877 204.404 352.233 202.17 351.272C201.37 350.925 200.232 350.668 199.387 351.408C196.69 353.758 193.812 355.463 190.844 356.47Z" fill="white"/>
<path d="M222.038 351.474L221.676 350.533C224.649 349.39 227.714 347.695 230.793 345.486C231.653 344.867 232.765 344.696 233.752 345.028C234.094 345.144 234.456 345.265 234.843 345.4C237.022 346.145 240.006 347.166 243.231 347.7L243.065 348.691C239.759 348.143 236.725 347.106 234.516 346.351C234.134 346.221 233.772 346.095 233.43 345.984C232.745 345.753 231.976 345.873 231.372 346.306C228.232 348.565 225.092 350.306 222.038 351.474Z" fill="white"/>
<path d="M132.441 357.219C127.495 355.136 123.892 352.364 122.167 350.467C121.668 349.919 120.919 349.672 120.159 349.813C117.075 350.376 114.086 350.437 111.283 349.989L111.444 348.998C114.131 349.425 117.004 349.37 119.978 348.827C121.08 348.62 122.182 348.988 122.916 349.798C124.572 351.619 128.043 354.281 132.834 356.299L132.441 357.219Z" fill="white"/>
<path d="M137.894 373.874C126.88 370.689 117.637 364.561 111.156 356.148L111.951 355.534C118.296 363.776 127.363 369.779 138.171 372.908L137.894 373.874Z" fill="white"/>
<path d="M230.667 357.884L230.365 356.923C236.786 354.9 242.441 352.334 246.295 349.692C249.204 347.7 256.419 342.069 260.681 332.786C264.922 323.543 264.912 313.681 260.645 303.477L261.576 303.09C265.954 313.565 265.959 323.699 261.596 333.209C257.234 342.724 249.843 348.49 246.869 350.528C242.929 353.219 237.178 355.831 230.667 357.884Z" fill="white"/>
<path d="M319.305 354.004L318.5 353.396C323.653 346.563 326.264 337.913 326.254 327.684C326.229 300.201 312.367 286.933 301.941 279.345L302.535 278.53C310.047 284 315.632 289.967 319.607 296.785C324.674 305.464 327.25 315.865 327.26 327.684C327.271 338.135 324.594 346.99 319.305 354.004Z" fill="white"/>
<path d="M325.182 291.285C321.71 285.298 321.76 278.953 325.318 273.881L326.143 274.46C322.822 279.199 322.787 285.147 326.052 290.782L325.182 291.285Z" fill="white"/>
<path d="M329.775 307.648L329.402 306.712C338.615 303.049 340.573 297.187 340.915 294.017C341.357 289.947 339.692 285.765 336.864 283.853C336.356 283.511 335.531 283.406 334.716 283.577C334.172 283.692 333.171 284.03 332.547 285.021L331.697 284.487C332.306 283.521 333.302 282.852 334.509 282.596C335.606 282.364 336.698 282.525 337.433 283.023C340.557 285.137 342.404 289.705 341.921 294.133C341.549 297.519 339.481 303.789 329.775 307.648Z" fill="white"/>
<path d="M60.1168 266.147L59.1406 265.906C60.7608 259.355 63.8754 253.065 68.1573 247.722L68.9422 248.351C64.7509 253.579 61.6967 259.732 60.1168 266.147Z" fill="white"/>
<path d="M140.412 344.369C137.317 344.369 133.428 343.196 129.865 341.174L130.363 340.298C134.001 342.366 137.961 343.508 140.96 343.347C144.044 343.186 146.862 342.462 149.322 341.189L149.785 342.084C147.194 343.423 144.246 344.188 141.015 344.354C140.814 344.364 140.613 344.369 140.412 344.369Z" fill="white"/>
<path d="M169.639 344.308C166.132 343.579 162.73 342.391 159.535 340.781L159.988 339.88C163.108 341.45 166.423 342.608 169.84 343.322L169.639 344.308Z" fill="white"/>
<path d="M210.521 343.146C207.573 343.146 204.659 342.452 201.781 341.053L202.219 340.147C209.007 343.443 216.066 342.628 223.201 337.727L223.769 338.557C219.321 341.616 214.889 343.146 210.521 343.146Z" fill="white"/>
<path d="M242.477 337.36C241.365 337.36 240.253 337.264 239.146 337.073L239.318 336.082C245.532 337.169 251.962 335 257.421 329.978L258.101 330.718C253.376 335.065 247.932 337.36 242.477 337.36Z" fill="white"/>
<path d="M223.946 67.5342L219.88 63.8511L201.711 69.1292L196.951 66.2662L175.154 72.7721L170.168 69.9091L159.873 74.664L164.22 74.7194L169.614 73.1847L173.584 77.688L195.281 71.1821L195.306 71.2073L199.487 75.6854L217.389 70.4324L220.242 74.4778L240.464 68.8072C240.917 68.8072 241.129 68.2437 240.786 67.9468L238.552 65.9996C238.336 65.8084 238.326 65.4712 238.542 65.275L240.862 63.1064C241.189 62.8045 240.973 62.2611 240.53 62.2611L223.946 67.5342Z" fill="black"/>
<path d="M219.006 77.6881L216.39 72.3999L198.593 78.2667L195.026 72.5357L172.368 79.4139L168.856 75.1974L159.673 75.1823L159.588 77.4466L168.298 79.0818L172.459 85.5575L194.08 79.102L198.18 85.7538L214.85 80.5008L217.874 85.7538L237.925 79.9825C238.378 79.9825 238.589 79.419 238.247 79.1221L235.948 76.7321C235.731 76.5409 235.721 76.2038 235.938 76.0075L238.328 72.4401C238.655 72.1382 238.438 71.5948 237.995 71.5948L219.006 77.6881Z" fill="black"/>
<path d="M168.774 196.56H190.143V278.278H147.098C142.64 278.278 139.027 274.666 139.027 270.208V263.621C139.027 258.962 140.064 254.358 142.061 250.147L168.774 196.56Z" fill="black"/>
<path d="M235.615 275.033C235.615 275.033 228.138 270.092 224.953 267.999C220.877 265.312 219.639 261.805 219.005 258.298L189.289 93.0747H120.169L120.975 85.326H81.7531L76.641 117.07C75.4736 124.311 81.0637 130.872 88.3998 130.872H136.261C142.882 130.872 148.658 135.365 150.289 141.781L184.745 278.439H234.719C236.626 278.444 236.933 275.752 235.615 275.033Z" fill="#FDB024"/>
<path d="M167.033 95.9478H149.734V71.2174H154.932L167.033 95.9478Z" fill="#EC8C92"/>
<path d="M146.273 69.6527V84.7073C146.273 85.9048 147.245 86.881 148.447 86.881C154.384 86.881 158.943 82.0808 158.998 74.5284L159.134 74.4378L146.273 69.6527Z" fill="#F2BDBA"/>
<path d="M114.635 90.6886L110.52 116.292L111.513 116.452L115.629 90.8483L114.635 90.6886Z" fill="black"/>
<path d="M162.325 68.6612L148.307 58.0747C147.472 57.4508 146.279 58.0445 146.279 59.0911V69.6575L159.14 74.4375L162.159 72.4651C162.954 71.9469 163.417 71.006 163.226 70.0751C163.11 69.5317 162.808 69.0235 162.325 68.6612Z" fill="#6784CE"/>
<path d="M158.998 74.5282L146.273 71.1721V67.5896L159.874 73.9546L158.998 74.5282Z" fill="black"/>
<path d="M173.953 93.0747H120.17L120.97 85.326H114.585L113.402 93.0747L171.024 129.187L173.953 93.0747Z" fill="#6784CE"/>
<path d="M172.347 112.869L173.952 93.0748H140.764L172.347 112.869Z" fill="white"/>
<path d="M124.743 92.8483L115.304 97.8044C111.309 99.9026 106.373 98.2472 104.451 94.1615L99.877 84.4505L121.427 77.0641C123.993 76.1836 126.675 78.0402 126.766 80.7472L127.028 88.9236C127.078 90.5639 126.192 92.0885 124.743 92.8483Z" fill="#EC8C92"/>
<path d="M119.283 68.1986V81.1802L148.97 75.8215C149.503 75.7058 149.88 75.2328 149.88 74.6844C149.88 74.141 149.503 73.668 148.97 73.5472L119.283 68.1986Z" fill="#FDB024"/>
<path d="M114.635 92.8735C113.221 92.964 109.699 93.2005 109.412 90.6545C107.273 93.5075 100.219 94.0307 99.5146 90.6898C97.98 93.4169 91.5093 94.6144 89.069 90.6545C85.9293 93.0144 82.9304 93.0093 80.792 92.8735C77.8234 92.6823 75.4082 90.4633 75.4082 87.4897V71.8564C75.4082 61.919 83.4638 58.0195 93.4012 58.0195H108.843C116.672 58.0195 123.022 60.2133 123.022 68.0425V84.4858C123.017 89.1199 119.259 92.5816 114.635 92.8735Z" fill="#F2BDBA"/>
<path d="M73.6126 88.0634C70.3169 88.5615 63.3984 89.4018 63.3984 89.4018V59.8411C63.3984 59.8411 70.322 60.6009 73.6126 61.1795C78.3776 62.0248 82.3777 65.1041 82.3777 69.9446V79.2933C82.3777 84.1387 78.3977 87.3388 73.6126 88.0634Z" fill="#FDB024"/>
<path d="M24.3169 44.1524L24.0703 104.512L53.9933 97.8246C61.6665 96.1189 67.1309 89.3162 67.1309 81.4518V67.1821C67.1309 59.3177 61.6716 52.5149 53.9933 50.8092L24.3169 44.1524Z" fill="#6784CE"/>
<path d="M23.8189 104.527C29.2461 104.527 33.6457 91.0037 33.6457 74.3221C33.6457 57.6404 29.2461 44.1173 23.8189 44.1173C18.3918 44.1173 13.9922 57.6404 13.9922 74.3221C13.9922 91.0037 18.3918 104.527 23.8189 104.527Z" fill="#FDB024"/>
<path d="M226.643 35.956H180.453V6.95377H220.696C223.982 6.95377 226.643 9.61549 226.643 12.9011V35.956Z" fill="#12D1A8"/>
<path d="M226.599 17.2032V14.31C226.599 13.6609 226.075 13.1376 225.426 13.1376C224.777 13.1376 224.254 13.6609 224.254 14.31V40.253C224.254 45.4205 228.44 49.6068 233.608 49.6068H281.67C284.291 49.6068 285.418 46.2859 283.345 44.6858L269.79 34.2352C268.869 33.5257 268.779 32.1621 269.604 31.342L277.488 23.4625C278.625 22.3253 277.82 20.3882 276.215 20.3882H229.784C228.028 20.3882 226.599 18.9642 226.599 17.2032Z" fill="#12D1A8"/>
<path d="M187.029 278.449L181.067 3.8591H178.682V278.449H187.029Z" fill="#FFF3A1"/>
<path d="M178.682 322.773V349.274C181.867 349.621 185.203 349.103 188.569 347.583L188.025 322.778H178.682V322.773Z" fill="#FFF3A1"/>
<path d="M179.799 5.7159C178.219 5.7159 176.941 4.43788 176.941 2.85795C176.941 1.27803 178.219 0 179.799 0C181.379 0 182.657 1.27803 182.657 2.85795C182.657 4.43285 181.379 5.7159 179.799 5.7159Z" fill="#FFF3A1"/>
<path d="M163.843 114.856L161.885 114.298C159.485 113.614 158.097 111.113 158.776 108.713L160.799 101.613C161.714 98.403 165.055 96.5463 168.265 97.4621L168.759 97.603C171.159 98.2873 172.552 100.788 171.868 103.188L169.428 111.747C168.743 114.147 166.243 115.541 163.843 114.856Z" fill="#EC8C92"/>
<path d="M172.246 130.218H230.703C234.95 130.218 238.397 126.772 238.397 122.525V109.901C238.397 98.1014 228.832 88.5414 217.037 88.5414H180.523C170.596 88.5414 163.743 94.7504 165.131 102.449C162.902 104.512 163.043 109.483 165.096 111.923C163.436 114.726 164.055 119.833 166.731 121.091C165.363 123.818 167.084 130.218 172.246 130.218Z" fill="#F2BDBA"/>
<path d="M217.038 88.5414H191.402C197.038 88.5414 201.611 93.1101 201.611 98.7505V123.546C201.611 127.234 198.623 130.223 194.935 130.223H230.709C234.961 130.223 238.403 126.777 238.403 122.53V109.906C238.398 98.1014 228.833 88.5414 217.038 88.5414Z" fill="#FDB024"/>
<path d="M23.6571 100.149C27.7392 100.149 31.0485 88.586 31.0485 74.322C31.0485 60.058 27.7392 48.4947 23.6571 48.4947C19.5749 48.4947 16.2656 60.058 16.2656 74.322C16.2656 88.586 19.5749 100.149 23.6571 100.149Z" fill="black"/>
<path d="M155.099 76.8025C154.877 76.5359 154.626 76.3346 154.339 76.1887C153.65 75.8314 152.814 75.8264 151.939 75.8214H151.863L151.873 74.8151H151.944C152.9 74.8251 153.891 74.8302 154.797 75.2981C155.204 75.5044 155.562 75.7962 155.868 76.1635L155.099 76.8025Z" fill="black"/>
<path d="M149.226 81.95C149.075 81.95 148.924 81.95 148.778 81.95H148.521L148.526 80.9437H148.783C150.041 80.9537 151.465 80.9638 152.144 80.1889L152.904 80.8531C152.018 81.8594 150.579 81.95 149.226 81.95Z" fill="black"/>
<path d="M162.078 92.5716H145.896V93.5779H162.078V92.5716Z" fill="black"/>
<path d="M160.624 96.8534H152.961V97.8597H160.624V96.8534Z" fill="black"/>
<path d="M179.799 6.21918C177.947 6.21918 176.438 4.7097 176.438 2.85806H177.444C177.444 4.15622 178.5 5.21285 179.799 5.21285C181.097 5.21285 182.153 4.15622 182.153 2.85806H183.16C183.16 4.7097 181.655 6.21918 179.799 6.21918Z" fill="black"/>
<path d="M179.184 327.925H178.178V344.625H179.184V327.925Z" fill="black"/>
<path d="M226.287 280.381C226.161 280.371 226.041 280.366 225.915 280.366H141.449C141.323 280.366 141.198 280.371 141.077 280.381C138.184 280.593 136.418 283.395 137.464 285.851C139.421 290.44 145.947 305.665 150.124 314.476C150.657 315.603 152.866 319.769 153.54 320.589C156.443 324.136 159.95 324.609 162.018 324.609H180.097H187.277H205.356C207.424 324.609 210.931 324.136 213.834 320.589C214.503 319.769 216.712 315.603 217.25 314.476C221.427 305.665 227.953 290.44 229.91 285.851C230.946 283.395 229.18 280.598 226.287 280.381Z" fill="#6784CE"/>
<path d="M205.351 324.111H162.014V325.118H205.351V324.111Z" fill="black"/>
<path d="M214.13 316.841H206.995V315.834H214.13V316.841ZM205.813 316.841H196.595V315.834H205.053L213.426 286.49L214.392 286.767L205.813 316.841ZM190.789 316.841H182.124V315.834H189.918L194.135 285.962L195.131 286.102L190.789 316.841ZM176.866 316.841H167.653V315.834H175.684L170.904 286.097L171.895 285.936L176.866 316.841ZM161.847 316.841H153.228V315.834H160.483L151.904 287.778L152.865 287.481L161.847 316.841Z" fill="black"/>
<path d="M23.5065 72.3144C23.5065 78.9058 24.2662 84.2493 22.3794 84.2493C20.4925 84.2493 18.9629 78.9058 18.9629 72.3144C18.9629 65.7229 20.4925 60.3794 22.3794 60.3794C24.2662 60.3743 23.5065 65.7229 23.5065 72.3144Z" fill="#12D1A8"/>
<path d="M224.756 15.4421H223.75V41.5964H224.756V15.4421Z" fill="black"/>
<path d="M166.792 101.13L166.238 100.29C169.65 98.036 173.298 95.8472 173.333 95.8221L173.851 96.6825C173.811 96.7126 170.188 98.8913 166.792 101.13Z" fill="black"/>
<path d="M167.296 110.539L166.768 109.684C170.29 107.521 174.189 105.231 174.229 105.211L174.738 106.076C174.702 106.097 170.808 108.381 167.296 110.539Z" fill="black"/>
<path d="M168.649 120.15L168.156 119.274C170.883 117.73 174.219 115.933 174.25 115.918L174.728 116.804C174.692 116.824 171.366 118.615 168.649 120.15Z" fill="black"/>
<path d="M110.095 89.7489L109.225 89.2508C109.823 88.2042 110.14 87.0117 110.14 85.8041V77.9699H111.147V85.8041C111.142 87.1828 110.779 88.5514 110.095 89.7489Z" fill="black"/>
<path d="M100.369 89.2255L99.4336 88.8582C99.7456 88.0531 99.9066 87.2027 99.9066 86.3323V77.9094H100.913V86.3323C100.913 87.3336 100.727 88.3047 100.369 89.2255Z" fill="black"/>
<path d="M89.7578 89.3866L88.8672 88.9136C89.3955 87.9174 89.6722 86.7953 89.6722 85.6632V78.2215H90.6786V85.6632C90.6836 86.9614 90.3666 88.2495 89.7578 89.3866Z" fill="black"/>
<path d="M179.09 20.1819H178.084V83.7311H179.09V20.1819Z" fill="black"/>
<path d="M179.09 131.617H178.084V195.166H179.09V131.617Z" fill="black"/>
</svg>
